<svg width="100" height="100" viewBox="0 0 100 100" fill="none" xmlns="http://www.w3.org/2000/svg">
<path d="M50.001 25.0039C50.0084 25.0039 50.0161 25.0048 50.0235 25.0049C53.2891 25.0045 56.5234 25.6442 59.542 26.8906C59.6885 26.9511 59.8343 27.014 59.9795 27.0772C59.986 27.0799 59.9926 27.0822 59.999 27.085C60.013 27.0911 60.0271 27.0974 60.041 27.1035C60.1378 27.146 60.2339 27.1898 60.3301 27.2334C60.4162 27.2725 60.5023 27.3115 60.5879 27.3516C60.6995 27.4038 60.8102 27.4579 60.9209 27.5117C60.9759 27.5385 61.0312 27.5647 61.086 27.5918C61.2142 27.6553 61.3417 27.7205 61.4688 27.7862C61.514 27.8096 61.5594 27.8328 61.6045 27.8565C61.7246 27.9195 61.8439 27.9839 61.9629 28.0488C62.0246 28.0825 62.0861 28.1163 62.1475 28.1504C62.4494 28.3184 62.7475 28.4926 63.042 28.6729C63.0701 28.69 63.098 28.7073 63.126 28.7246C63.2682 28.8124 63.4095 28.9016 63.5498 28.9922C63.5667 29.0031 63.5838 29.0135 63.6006 29.0244C63.9076 29.2237 64.2099 29.43 64.5078 29.6426C64.5344 29.6615 64.5605 29.6812 64.5869 29.7002C64.7077 29.7872 64.828 29.8748 64.9473 29.9639C64.9924 29.9975 65.0372 30.0315 65.082 30.0654C65.2018 30.1562 65.3214 30.247 65.4395 30.3399C65.4704 30.3642 65.5005 30.3896 65.5313 30.4141C65.7867 30.617 66.0396 30.8232 66.2871 31.0362L66.3574 31.0977C66.3759 31.1137 66.3937 31.1304 66.4121 31.1465C66.535 31.2536 66.6575 31.3611 66.7783 31.4707C66.7886 31.48 66.7984 31.4897 66.8086 31.499C67.0817 31.7476 67.3501 32.0018 67.6123 32.2627C67.631 32.2804 67.6488 32.299 67.667 32.3174L68.0674 32.7256C70.2012 34.9523 71.9041 37.558 73.0889 40.4092C73.3908 41.1358 73.6565 41.8758 73.8877 42.625C73.985 42.94 74.0756 43.2569 74.1602 43.5752C74.7161 45.6669 75.0002 47.8262 74.9981 50L74.9912 50.6172C74.9756 51.2809 74.9316 51.943 74.8633 52.6016C74.8578 52.6544 74.8525 52.7071 74.8467 52.7598C74.8341 52.8738 74.8208 52.9878 74.8067 53.1016C74.8008 53.1488 74.7952 53.196 74.7891 53.2432C74.7726 53.3703 74.7548 53.4972 74.7363 53.624C74.7236 53.7121 74.71 53.8 74.6963 53.8877C74.6804 53.9891 74.6636 54.0903 74.6465 54.1914C74.6339 54.2661 74.6207 54.3406 74.6074 54.4151C74.5897 54.5141 74.5726 54.6132 74.5537 54.7119C74.4158 55.4348 74.2468 56.1469 74.0479 56.8467C74.0342 56.8947 74.0198 56.9424 74.0059 56.9903C73.9686 57.1183 73.9299 57.2458 73.8906 57.3731C73.8842 57.3941 73.8786 57.4155 73.8721 57.4365C73.8193 57.6063 73.7644 57.7752 73.708 57.9434C73.6994 57.9691 73.6913 57.9949 73.6826 58.0205C73.6331 58.1667 73.5815 58.312 73.5293 58.4571C73.5133 58.5017 73.4968 58.5462 73.4805 58.5908C73.4606 58.6451 73.4421 58.6998 73.4219 58.7539C73.4175 58.7656 73.4108 58.7766 73.4063 58.7881C73.3045 59.0593 73.2002 59.3298 73.0889 59.5977C71.8323 62.6218 69.991 65.3671 67.6729 67.6797C67.6613 67.6918 67.6506 67.7049 67.6387 67.7168C65.9002 69.4521 63.9183 70.9185 61.7588 72.0703C61.6516 72.1275 61.5427 72.1817 61.4346 72.2373C61.3689 72.2754 61.3015 72.3112 61.2315 72.3428C61.2259 72.3456 61.2205 72.3488 61.2149 72.3516C60.6677 72.6264 60.1096 72.8809 59.542 73.1153C58.9155 73.374 58.2792 73.6053 57.6358 73.8115C56.7975 74.0802 55.9465 74.304 55.086 74.4824C54.7484 74.5524 54.4095 74.615 54.0694 74.6709C52.7257 74.8918 51.3632 75.0046 49.9951 75.0029C49.9863 75.0029 49.9776 75.0011 49.9688 75.001C43.5853 74.9936 37.7636 72.594 33.3496 68.6504C33.3252 68.6286 33.3007 68.6069 33.2764 68.585C33.036 68.3686 32.8001 68.1474 32.5684 67.9219C32.5426 67.8969 32.5169 67.8719 32.4912 67.8467C30.1107 65.5108 28.1963 62.7026 26.8985 59.5733C26.8912 59.5557 26.8833 59.5381 26.876 59.5205C26.8736 59.5147 26.8715 59.5088 26.8692 59.5029C25.665 56.574 24.999 53.3662 24.999 50.0029C24.9982 49.3476 25.0249 48.6948 25.0752 48.0459C25.1155 47.5259 25.1717 47.0084 25.2442 46.4942C25.2548 46.4189 25.2661 46.3437 25.2774 46.2686C25.3356 45.8811 25.4033 45.4957 25.4795 45.1123C25.5313 44.8519 25.5855 44.5923 25.6455 44.334C25.6881 44.1508 25.7327 43.9682 25.7793 43.7862C25.9532 43.1076 26.1568 42.4377 26.3867 41.7774C26.4667 41.5477 26.5491 41.319 26.6358 41.0918C26.7553 40.7784 26.8816 40.4676 27.0137 40.1592C27.085 39.9928 27.1575 39.827 27.2324 39.6621C27.5048 39.0626 27.8006 38.4735 28.1201 37.8965C28.2843 37.6001 28.4555 37.3075 28.6319 37.0176C28.8004 36.7406 28.9748 36.467 29.1543 36.1963C29.4641 35.7293 29.7899 35.272 30.1319 34.8252C30.5534 34.2746 30.9976 33.7386 31.4668 33.2217L31.876 32.7822C34.2085 30.3219 37.0185 28.3629 40.1338 27.0254C40.6182 26.8175 41.1093 26.6275 41.6045 26.4512C44.2962 25.4926 47.1359 25.0003 50.001 25.0039ZM54.7832 53.7237C54.1823 53.932 53.5824 54.163 52.9883 54.4238L52.9893 54.4248C45.6725 57.6378 40.1159 62.3728 37.0576 65.8408C38.057 66.6583 39.1363 67.385 40.2852 68.0069C40.2894 68.0092 40.2936 68.0123 40.2979 68.0147C43.1844 69.5725 46.4878 70.457 49.9981 70.4571H50.001C52.5116 70.4601 55.0001 70.0003 57.3408 69.1006C57.4737 69.0495 57.6054 68.9953 57.7373 68.9414C57.6493 68.4155 57.5553 67.8375 57.458 67.2266C57.2195 65.7286 56.9373 63.9441 56.5869 61.9951C56.1181 59.3875 55.5314 56.5232 54.7832 53.7237ZM70.336 52.1924C67.446 52.0581 63.4226 51.87 59.1885 52.6016C59.9791 55.5676 60.5855 58.5488 61.0606 61.1914C61.4203 63.1923 61.709 65.0214 61.9463 66.5117C61.9508 66.5402 61.9555 66.5685 61.96 66.5967C62.0239 66.5505 62.089 66.5059 62.1524 66.459C62.9562 65.8642 63.7169 65.2096 64.4278 64.5L64.4317 64.4961C66.3425 62.5984 67.8582 60.3405 68.8916 57.8535C69.6442 56.0423 70.1288 54.1353 70.336 52.1924ZM52.1016 46.2686C51.8257 46.3946 51.5486 46.5186 51.2695 46.6377C47.2834 48.3398 42.3237 49.0794 37.9522 49.3828C34.7688 49.6038 31.7913 49.5988 29.5488 49.5293C29.5454 49.686 29.5437 49.8429 29.544 50V50.0029C29.544 52.774 30.0963 55.4162 31.0947 57.8262C31.8077 59.541 32.7448 61.1383 33.8721 62.5821C37.3948 58.6617 43.3922 53.6743 51.1612 50.2627L51.9863 49.917C52.4715 49.723 52.9601 49.5451 53.4492 49.3799C53.0761 48.3429 52.6197 47.3021 52.1016 46.2686ZM65.8526 37.0781C63.7045 38.9057 60.2365 41.7365 56.127 44.1582C56.7856 45.4641 57.365 46.7908 57.8281 48.1221C57.8415 48.1604 57.854 48.199 57.8672 48.2373C62.7593 47.3169 67.3725 47.4811 70.3145 47.6279C70.3091 47.5815 70.3055 47.5348 70.2998 47.4883C70.0748 45.6584 69.602 43.8631 68.8916 42.1533C68.1812 40.4436 67.2426 38.8422 66.1045 37.3916C66.0218 37.2862 65.9374 37.182 65.8526 37.0781ZM40.9834 31.6367C38.8097 32.7042 36.8404 34.1512 35.1709 35.9131L35.167 35.918C32.7939 38.409 31.1111 41.4377 30.2363 44.7071C30.2104 44.8041 30.1857 44.9016 30.1612 44.999C32.2198 45.0511 34.8503 45.0421 37.6377 44.8487C41.8396 44.557 46.199 43.8604 49.4854 42.4571C49.5966 42.4096 49.7067 42.3593 49.8174 42.3106C46.9777 37.9385 43.4512 34.0288 41.0059 31.625C40.9983 31.6287 40.991 31.633 40.9834 31.6367ZM49.9951 29.5488C48.6083 29.5471 47.2286 29.6869 45.877 29.9639C45.8401 29.9714 45.8034 29.9796 45.7666 29.9873C48.2381 32.5846 51.3073 36.1915 53.8711 40.2149C57.423 38.1173 60.4925 35.6524 62.5899 33.8828C62.5235 33.8309 62.4567 33.7796 62.3897 33.7285C62.2132 33.594 62.0352 33.4617 61.8545 33.333C61.627 33.171 61.3961 33.0139 61.1621 32.8613C60.1034 32.1709 58.9805 31.5775 57.8067 31.0928C55.3314 30.0708 52.6789 29.5455 50.001 29.5488H49.9951Z" fill="#051B34"/>
<path d="M50.001 25.0039L50.0017 24.4484H50.0017L50.001 25.0039ZM50.0235 25.0049L50.0174 25.5604L50.0235 25.5604L50.0235 25.0049ZM59.542 26.8906L59.7541 26.3772L59.754 26.3772L59.542 26.8906ZM59.9795 27.0772L59.7577 27.5865L59.7617 27.5882L59.9795 27.0772ZM59.999 27.085L60.2215 26.5759L60.2214 26.5759L59.999 27.085ZM60.041 27.1035L59.8176 27.6122L59.8179 27.6123L60.041 27.1035ZM60.3301 27.2334L60.56 26.7277L60.5597 26.7275L60.3301 27.2334ZM60.5879 27.3516L60.3523 27.8547L60.3526 27.8548L60.5879 27.3516ZM60.9209 27.5117L61.1639 27.0122L61.1637 27.0121L60.9209 27.5117ZM61.086 27.5918L60.8393 28.0896L60.8395 28.0897L61.086 27.5918ZM61.4688 27.7862L61.7239 27.2927L61.7238 27.2926L61.4688 27.7862ZM61.6045 27.8565L61.3463 28.3484L61.3465 28.3485L61.6045 27.8565ZM61.9629 28.0488L62.229 27.5612L62.2289 27.5611L61.9629 28.0488ZM62.1475 28.1504L61.8773 28.6358L61.8774 28.6359L62.1475 28.1504ZM63.042 28.6729L63.3321 28.1991L63.3321 28.1991L63.042 28.6729ZM63.126 28.7246L62.834 29.1973L62.8341 29.1973L63.126 28.7246ZM63.5498 28.9922L63.8512 28.5255L63.8512 28.5255L63.5498 28.9922ZM63.6006 29.0244L63.2981 29.4904V29.4904L63.6006 29.0244ZM64.5078 29.6426L64.1851 30.0948L64.1852 30.0948L64.5078 29.6426ZM64.5869 29.7002L64.9114 29.2493L64.9114 29.2493L64.5869 29.7002ZM64.9473 29.9639L64.6148 30.4089L64.6148 30.409L64.9473 29.9639ZM65.0821 30.0654L65.4176 29.6227L65.4175 29.6226L65.0821 30.0654ZM65.4395 30.3399L65.096 30.7765L65.0961 30.7766L65.4395 30.3399ZM65.5313 30.4141L65.8768 29.9791L65.8767 29.979L65.5313 30.4141ZM66.2871 31.0362L66.653 30.618L66.6495 30.615L66.2871 31.0362ZM66.3574 31.0977L65.9916 31.5158L65.9937 31.5176L66.3574 31.0977ZM66.4121 31.1465L66.7773 30.7278L66.7771 30.7277L66.4121 31.1465ZM66.7783 31.4707L66.405 31.8822L66.4052 31.8823L66.7783 31.4707ZM66.8086 31.499L67.1826 31.0882L67.1824 31.0881L66.8086 31.499ZM67.6123 32.2627L67.2205 32.6565C67.224 32.66 67.2275 32.6634 67.2311 32.6668L67.6123 32.2627ZM67.667 32.3174L68.0636 31.9284L68.0617 31.9265L67.667 32.3174ZM68.0674 32.7256L68.4685 32.3412L68.464 32.3366L68.0674 32.7256ZM73.0889 40.4092L73.6019 40.196L73.6019 40.196L73.0889 40.4092ZM73.8877 42.625L73.3569 42.7889V42.7889L73.8877 42.625ZM74.1602 43.5752L74.6971 43.4325V43.4325L74.1602 43.5752ZM74.9981 50L75.5536 50.0062L75.5536 50.0006L74.9981 50ZM74.9912 50.6172L75.5467 50.6303L75.5467 50.6234L74.9912 50.6172ZM74.8633 52.6016L74.3107 52.5443L74.3107 52.5444L74.8633 52.6016ZM74.8467 52.7598L75.3989 52.8206L75.3989 52.8204L74.8467 52.7598ZM74.8067 53.1016L74.2554 53.0331L74.2553 53.0333L74.8067 53.1016ZM74.7891 53.2432L75.34 53.3148L75.34 53.3146L74.7891 53.2432ZM74.7363 53.624L74.1866 53.5439L74.1866 53.5442L74.7363 53.624ZM74.6963 53.8877L75.2452 53.9737L75.2452 53.9734L74.6963 53.8877ZM74.6465 54.1914L74.0988 54.0987L74.0987 54.0989L74.6465 54.1914ZM74.6074 54.4151L75.1543 54.5128L75.1544 54.5125L74.6074 54.4151ZM74.5537 54.7119L74.0081 54.6076L74.008 54.6078L74.5537 54.7119ZM74.0479 56.8467L74.5822 56.9986L74.5823 56.9986L74.0479 56.8467ZM74.0059 56.9903L73.4724 56.8351L73.4724 56.8352L74.0059 56.9903ZM73.8906 57.3731L73.3598 57.2094L73.3597 57.2094L73.8906 57.3731ZM73.8721 57.4365L74.4025 57.6016L74.4025 57.6016L73.8721 57.4365ZM73.708 57.9434L73.1813 57.7669L73.1812 57.767L73.708 57.9434ZM73.6826 58.0205L74.2088 58.1987L74.2089 58.1986L73.6826 58.0205ZM73.5293 58.4571L73.0065 58.2691L73.0065 58.2693L73.5293 58.4571ZM73.4805 58.5908L74.0022 58.7818L74.0023 58.7816L73.4805 58.5908ZM73.4219 58.7539L73.9422 58.9486L73.9422 58.9485L73.4219 58.7539ZM73.4063 58.7881L72.8891 58.5851L72.8861 58.5929L73.4063 58.7881ZM73.0889 59.5977L73.6019 59.8108L73.6019 59.8108L73.0889 59.5977ZM67.6729 67.6797L67.2804 67.2863L67.2719 67.2952L67.6729 67.6797ZM67.6387 67.7168L68.0311 68.11L68.0312 68.11L67.6387 67.7168ZM61.7588 72.0703L62.0202 72.5605L61.7588 72.0703ZM61.4346 72.2373L61.1803 71.7434C61.1721 71.7476 61.164 71.752 61.156 71.7567L61.4346 72.2373ZM61.2315 72.3428L61.0031 71.8364C60.9959 71.8396 60.9888 71.843 60.9818 71.8465L61.2315 72.3428ZM61.2149 72.3516L60.9655 71.8551L61.2149 72.3516ZM59.542 73.1153L59.754 73.6287L59.7541 73.6287L59.542 73.1153ZM57.6358 73.8115L57.4662 73.2825L57.4662 73.2825L57.6358 73.8115ZM55.086 74.4824L55.1986 75.0264L55.1987 75.0264L55.086 74.4824ZM54.0694 74.6709L53.9793 74.1227L53.9792 74.1227L54.0694 74.6709ZM49.9951 75.0029L49.9943 75.5585L49.9944 75.5585L49.9951 75.0029ZM49.9688 75.001L49.9759 74.4455L49.9694 74.4455L49.9688 75.001ZM33.3496 68.6504L33.7198 68.2361L33.7198 68.2361L33.3496 68.6504ZM33.2764 68.585L32.9046 68.9978L32.9046 68.9978L33.2764 68.585ZM32.5684 67.9219L32.181 68.3201L32.181 68.3201L32.5684 67.9219ZM32.4912 67.8467L32.8804 67.4502L32.8803 67.4502L32.4912 67.8467ZM26.8985 59.5733L27.4116 59.3604L27.4114 59.3599L26.8985 59.5733ZM26.876 59.5205L26.3625 59.7325L26.3626 59.7327L26.876 59.5205ZM26.8692 59.5029L27.3844 59.2951L27.383 59.2917L26.8692 59.5029ZM24.999 50.003H25.5546L25.5546 50.0023L24.999 50.003ZM25.0752 48.0459L24.5213 48.003V48.003L25.0752 48.0459ZM25.2442 46.4942L25.7943 46.5717V46.5717L25.2442 46.4942ZM25.2774 46.2686L24.728 46.186V46.186L25.2774 46.2686ZM25.4795 45.1123L26.0244 45.2207V45.2207L25.4795 45.1123ZM25.6455 44.334L25.1044 44.2083H25.1044L25.6455 44.334ZM25.7793 43.7862L26.3175 43.924H26.3175L25.7793 43.7862ZM26.3867 41.7774L25.8621 41.5947H25.8621L26.3867 41.7774ZM26.6358 41.0918L27.1548 41.2898H27.1548L26.6358 41.0918ZM27.0137 40.1592L26.503 39.9405L26.503 39.9405L27.0137 40.1592ZM27.2324 39.6621L27.7382 39.8919V39.8919L27.2324 39.6621ZM28.1201 37.8965L27.6342 37.6273L27.6342 37.6273L28.1201 37.8965ZM28.6319 37.0176L29.1064 37.3064V37.3064L28.6319 37.0176ZM29.1543 36.1963L28.6914 35.8892V35.8892L29.1543 36.1963ZM30.1319 34.8252L30.573 35.1629V35.1629L30.1319 34.8252ZM31.4668 33.2217L31.0602 32.8431L31.0555 32.8483L31.4668 33.2217ZM31.876 32.7822L31.4728 32.4L31.4694 32.4037L31.876 32.7822ZM40.1338 27.0254L39.9147 26.5149L39.9146 26.5149L40.1338 27.0254ZM41.6045 26.4512L41.7909 26.9745L41.7909 26.9745L41.6045 26.4512ZM54.7832 53.7237L55.3199 53.5802C55.2801 53.4311 55.18 53.3053 55.0437 53.2329C54.9074 53.1606 54.7471 53.1482 54.6012 53.1988L54.7832 53.7237ZM52.9883 54.4238L52.765 53.9152C52.597 53.9889 52.4762 54.1409 52.4423 54.3212C52.4084 54.5015 52.4657 54.6869 52.5955 54.8167L52.9883 54.4238ZM52.9893 54.4248L53.2126 54.9335C53.3806 54.8597 53.5014 54.7078 53.5353 54.5275C53.5692 54.3471 53.5118 54.1617 53.3821 54.032L52.9893 54.4248ZM37.0576 65.8408L36.641 65.4734C36.5412 65.5866 36.4917 65.7355 36.5039 65.8859C36.5162 66.0363 36.5891 66.1753 36.7059 66.2708L37.0576 65.8408ZM40.2852 68.0069L40.0207 68.4954L40.0207 68.4954L40.2852 68.0069ZM40.2979 68.0147L40.0304 68.5016L40.034 68.5036L40.2979 68.0147ZM49.9981 70.4571L49.9981 71.0126H49.9981V70.4571ZM50.001 70.4571L50.0017 69.9015H50.001V70.4571ZM57.3408 69.1006L57.5402 69.6192L57.3408 69.1006ZM57.7373 68.9414L57.9475 69.4557C58.1878 69.3575 58.3281 69.1059 58.2853 68.8498L57.7373 68.9414ZM57.458 67.2266L58.0067 67.1392V67.1392L57.458 67.2266ZM56.5869 61.9951L57.1337 61.8968V61.8968L56.5869 61.9951ZM70.336 52.1924L70.8884 52.2513C70.9046 52.0991 70.8573 51.9469 70.7576 51.8307C70.6579 51.7145 70.5147 51.6446 70.3618 51.6375L70.336 52.1924ZM59.1885 52.6016L59.0939 52.0541C58.9402 52.0807 58.8048 52.1706 58.7207 52.302C58.6366 52.4333 58.6115 52.594 58.6517 52.7447L59.1885 52.6016ZM61.0606 61.1914L61.6073 61.0931L61.6073 61.0931L61.0606 61.1914ZM61.9463 66.5117L61.3977 66.5991V66.5991L61.9463 66.5117ZM61.96 66.5967L61.4114 66.6841C61.4417 66.8746 61.5687 67.0357 61.7469 67.1097C61.925 67.1837 62.1288 67.16 62.2852 67.0471L61.96 66.5967ZM62.1524 66.459L61.8219 66.0124L62.1524 66.459ZM64.4278 64.5L64.8202 64.8932L64.8206 64.8928L64.4278 64.5ZM64.4317 64.4961L64.0402 64.1019L64.0388 64.1033L64.4317 64.4961ZM68.8916 57.8535L69.4046 58.0667L69.4046 58.0667L68.8916 57.8535ZM52.1016 46.2686L52.5982 46.0196C52.4642 45.7523 52.1427 45.639 51.8708 45.7633L52.1016 46.2686ZM51.2696 46.6377L51.4877 47.1486L51.4877 47.1486L51.2696 46.6377ZM37.9522 49.3828L37.9906 49.937H37.9906L37.9522 49.3828ZM29.5488 49.5293L29.5661 48.974C29.4179 48.9694 29.274 49.0243 29.1665 49.1263C29.059 49.2283 28.9967 49.3691 28.9934 49.5173L29.5488 49.5293ZM29.544 50H30.0995L30.0995 49.9993L29.544 50ZM31.0947 57.8262L30.5815 58.0388L30.5818 58.0395L31.0947 57.8262ZM33.8721 62.5821L33.4342 62.9239C33.5354 63.0535 33.6887 63.1316 33.8529 63.1373C34.0171 63.1429 34.1755 63.0756 34.2853 62.9534L33.8721 62.5821ZM51.1612 50.2627L50.9465 49.7502L50.9378 49.7541L51.1612 50.2627ZM51.9863 49.917L51.78 49.4011L51.7717 49.4046L51.9863 49.917ZM53.4492 49.3799L53.627 49.9062C53.7684 49.8585 53.8846 49.7559 53.9495 49.6215C54.0144 49.4871 54.0225 49.3322 53.972 49.1918L53.4492 49.3799ZM65.8526 37.0781L66.2828 36.7267C66.1884 36.6111 66.0514 36.5384 65.9027 36.5249C65.7541 36.5114 65.6063 36.5583 65.4926 36.655L65.8526 37.0781ZM56.127 44.1582L55.8449 43.6796C55.5927 43.8282 55.4991 44.147 55.6309 44.4084L56.127 44.1582ZM57.8281 48.1221L58.3528 47.9396V47.9396L57.8281 48.1221ZM57.8672 48.2373L57.3421 48.4186C57.432 48.679 57.6992 48.8342 57.9699 48.7833L57.8672 48.2373ZM70.3145 47.628L70.2868 48.1828C70.4499 48.1909 70.6083 48.1269 70.72 48.0077C70.8316 47.8885 70.8851 47.7262 70.8663 47.5639L70.3145 47.628ZM70.2998 47.4883L70.8512 47.4205L70.2998 47.4883ZM68.8916 42.1533L69.4046 41.9402L69.4046 41.9402L68.8916 42.1533ZM66.1045 37.3916L65.6674 37.7345L66.1045 37.3916ZM40.9834 31.6367L41.2283 32.1354L40.9834 31.6367ZM35.1709 35.9131L34.7677 35.531C34.757 35.5423 34.7468 35.554 34.7371 35.5661L35.1709 35.9131ZM35.167 35.918L35.5692 36.3012C35.5803 36.2896 35.5908 36.2775 35.6008 36.265L35.167 35.918ZM30.2363 44.7071L30.773 44.8506L30.2363 44.7071ZM30.1612 44.999L29.6224 44.8634C29.5812 45.0271 29.6166 45.2006 29.7187 45.335C29.8208 45.4694 29.9784 45.5501 30.1471 45.5544L30.1612 44.999ZM37.6377 44.8487L37.6762 45.4029H37.6762L37.6377 44.8487ZM49.4854 42.4571L49.7035 42.968L49.7036 42.968L49.4854 42.4571ZM49.8174 42.3106L50.0413 42.819C50.1904 42.7533 50.3032 42.6255 50.3498 42.4694C50.3963 42.3133 50.372 42.1446 50.2833 42.008L49.8174 42.3106ZM41.0059 31.625L41.3953 31.2288C41.2273 31.0636 40.9733 31.0224 40.7616 31.1261L41.0059 31.625ZM49.9951 29.5488L49.9944 30.1044H49.9951V29.5488ZM45.877 29.9639L45.9885 30.5081L45.877 29.9639ZM45.7666 29.9873L45.6521 29.4437C45.455 29.4852 45.2959 29.6301 45.2361 29.8225C45.1763 30.0148 45.2253 30.2244 45.3642 30.3703L45.7666 29.9873ZM53.8711 40.2149L53.4026 40.5134C53.5636 40.766 53.8957 40.8455 54.1536 40.6932L53.8711 40.2149ZM62.5899 33.8828L62.9481 34.3074C63.076 34.1996 63.1484 34.0398 63.1453 33.8725C63.1422 33.7053 63.0639 33.5483 62.9321 33.4452L62.5899 33.8828ZM62.3897 33.7285L62.0527 34.1703L62.0528 34.1703L62.3897 33.7285ZM61.8545 33.333L62.1768 32.8805L62.1768 32.8805L61.8545 33.333ZM61.1621 32.8613L61.4656 32.396L61.4656 32.396L61.1621 32.8613ZM57.8067 31.0928L58.0187 30.5793L58.0187 30.5793L57.8067 31.0928ZM50.001 29.5488V30.1044L50.0017 30.1044L50.001 29.5488ZM50.001 25.0039L50.0003 25.5595C49.9914 25.5595 49.9847 25.5592 49.9812 25.559C49.9781 25.5589 49.9759 25.5587 49.9779 25.5589C49.9786 25.5589 49.9841 25.5593 49.9899 25.5596C49.9961 25.5599 50.0058 25.5603 50.0174 25.5604L50.0235 25.0049L50.0295 24.4494C50.0374 24.4495 50.0434 24.4498 50.0459 24.4499C50.0479 24.45 50.0497 24.4501 50.0466 24.4499C50.0448 24.4498 50.0388 24.4494 50.032 24.4491C50.0248 24.4488 50.0143 24.4484 50.0017 24.4484L50.001 25.0039ZM50.0235 25.0049L50.0235 25.5604C53.2166 25.5601 56.3788 26.1855 59.33 27.4041L59.542 26.8906L59.754 26.3772C56.668 25.1029 53.3616 24.449 50.0234 24.4494L50.0235 25.0049ZM59.542 26.8906L59.33 27.4041C59.4716 27.4626 59.6136 27.5238 59.7577 27.5865L59.9795 27.0772L60.2013 26.5678C60.0551 26.5041 59.9054 26.4397 59.7541 26.3772L59.542 26.8906ZM59.9795 27.0772L59.7617 27.5882C59.7697 27.5916 59.7764 27.5943 59.781 27.5961C59.7851 27.5977 59.7892 27.5993 59.7899 27.5996C59.7915 27.6002 59.7903 27.5997 59.7884 27.599C59.7863 27.5982 59.7821 27.5965 59.7766 27.5941L59.999 27.085L60.2214 26.5759C60.2128 26.5721 60.2053 26.5691 60.2 26.5669C60.1948 26.5649 60.1903 26.5632 60.1887 26.5625C60.1861 26.5615 60.1869 26.5618 60.1878 26.5622C60.1891 26.5627 60.1926 26.5641 60.1973 26.5661L59.9795 27.0772ZM59.999 27.085L59.7765 27.594C59.7948 27.602 59.7931 27.6014 59.8176 27.6122L60.041 27.1035L60.2645 26.5949C60.2612 26.5935 60.2311 26.5801 60.2215 26.5759L59.999 27.085ZM60.041 27.1035L59.8179 27.6123C59.9107 27.653 60.0031 27.6951 60.1005 27.7393L60.3301 27.2334L60.5597 26.7275C60.4648 26.6845 60.3649 26.639 60.2642 26.5948L60.041 27.1035ZM60.3301 27.2334L60.1002 27.7392C60.1877 27.779 60.2703 27.8163 60.3523 27.8547L60.5879 27.3516L60.8235 26.8485C60.7343 26.8067 60.6446 26.7661 60.56 26.7277L60.3301 27.2334ZM60.5879 27.3516L60.3526 27.8548C60.4594 27.9048 60.5653 27.9566 60.6781 28.0114L60.9209 27.5117L61.1637 27.0121C61.055 26.9593 60.9396 26.9028 60.8233 26.8484L60.5879 27.3516ZM60.9209 27.5117L60.6779 28.0113C60.7407 28.0418 60.786 28.0632 60.8393 28.0896L61.086 27.5918L61.3326 27.094C61.2763 27.0662 61.2112 27.0351 61.1639 27.0122L60.9209 27.5117ZM61.086 27.5918L60.8395 28.0897C60.9636 28.1512 61.0878 28.2146 61.2138 28.2797L61.4688 27.7862L61.7238 27.2926C61.5955 27.2263 61.4649 27.1595 61.3324 27.0939L61.086 27.5918ZM61.4688 27.7862L61.2136 28.2796C61.2615 28.3044 61.3032 28.3257 61.3463 28.3484L61.6045 27.8565L61.8627 27.3646C61.8156 27.3398 61.7666 27.3147 61.7239 27.2927L61.4688 27.7862ZM61.6045 27.8565L61.3465 28.3485C61.4627 28.4094 61.5789 28.4722 61.6969 28.5366L61.9629 28.0488L62.2289 27.5611C62.1089 27.4957 61.9866 27.4295 61.8625 27.3645L61.6045 27.8565ZM61.9629 28.0488L61.6968 28.5365C61.7579 28.5698 61.8179 28.6027 61.8773 28.6358L62.1475 28.1504L62.4177 27.665C62.3544 27.6298 62.2913 27.5951 62.229 27.5612L61.9629 28.0488ZM62.1475 28.1504L61.8774 28.6359C62.1725 28.8001 62.464 28.9704 62.7519 29.1467L63.042 28.6729L63.3321 28.1991C63.0311 28.0148 62.7263 27.8367 62.4176 27.665L62.1475 28.1504ZM63.042 28.6729L62.7519 29.1467C62.7788 29.1631 62.8055 29.1796 62.834 29.1973L63.126 28.7246L63.418 28.252C63.3905 28.235 63.3613 28.217 63.3321 28.1991L63.042 28.6729ZM63.126 28.7246L62.8341 29.1973C62.9733 29.2833 63.1114 29.3704 63.2484 29.4589L63.5498 28.9922L63.8512 28.5255C63.7075 28.4327 63.5631 28.3416 63.4179 28.252L63.126 28.7246ZM63.5498 28.9922L63.2484 29.4589C63.2603 29.4666 63.272 29.4739 63.2797 29.4787C63.2885 29.4842 63.2936 29.4875 63.2981 29.4904L63.6006 29.0244L63.9031 28.5585C63.8908 28.5504 63.8789 28.543 63.8708 28.5379C63.8615 28.5321 63.8561 28.5287 63.8512 28.5255L63.5498 28.9922ZM63.6006 29.0244L63.2981 29.4904C63.598 29.6851 63.8936 29.8867 64.1851 30.0948L64.5078 29.6426L64.8306 29.1904C64.5262 28.9732 64.2172 28.7624 63.9031 28.5585L63.6006 29.0244ZM64.5078 29.6426L64.1852 30.0948C64.2253 30.1235 64.2083 30.1122 64.2625 30.1512L64.5869 29.7002L64.9114 29.2493C64.9008 29.2417 64.8902 29.2339 64.8763 29.2236C64.8632 29.214 64.8472 29.2023 64.8305 29.1904L64.5078 29.6426ZM64.5869 29.7002L64.2624 30.1511C64.3816 30.2369 64.499 30.3224 64.6148 30.4089L64.9473 29.9639L65.2798 29.5188C65.157 29.4271 65.0339 29.3374 64.9114 29.2493L64.5869 29.7002ZM64.9473 29.9639L64.6148 30.409C64.6583 30.4414 64.7018 30.4743 64.7466 30.5083L65.0821 30.0654L65.4175 29.6226C65.3726 29.5886 65.3265 29.5537 65.2797 29.5188L64.9473 29.9639ZM65.0821 30.0654L64.7465 30.5082C64.8665 30.5992 64.9824 30.6871 65.096 30.7765L65.4395 30.3399L65.7829 29.9032C65.6604 29.8068 65.537 29.7132 65.4176 29.6227L65.0821 30.0654ZM65.4395 30.3399L65.0961 30.7766C65.1068 30.785 65.1183 30.7943 65.1337 30.807C65.1479 30.8186 65.1666 30.8339 65.1858 30.8492L65.5313 30.4141L65.8767 29.979C65.8651 29.9698 65.8534 29.9602 65.8371 29.9469C65.8221 29.9346 65.803 29.919 65.7828 29.9031L65.4395 30.3399ZM65.5313 30.4141L65.1857 30.8491C65.4376 31.0492 65.6846 31.2506 65.9248 31.4573L66.2871 31.0362L66.6495 30.615C66.3947 30.3958 66.1357 30.1848 65.8768 29.9791L65.5313 30.4141ZM66.2871 31.0362L65.9213 31.4542L65.9916 31.5158L66.3574 31.0977L66.7233 30.6796L66.653 30.6181L66.2871 31.0362ZM66.3574 31.0977L65.9937 31.5176C65.9977 31.521 66.0025 31.5254 66.012 31.534C66.0201 31.5413 66.0332 31.5532 66.0471 31.5653L66.4121 31.1465L66.7771 30.7277C66.7726 30.7237 66.7676 30.7192 66.7576 30.7102C66.749 30.7024 66.7356 30.6903 66.7212 30.6778L66.3574 31.0977ZM66.4121 31.1465L66.047 31.5652C66.1694 31.672 66.2885 31.7765 66.405 31.8822L66.7783 31.4707L67.1516 31.0593C67.0266 30.9458 66.9005 30.8353 66.7773 30.7278L66.4121 31.1465ZM66.7783 31.4707L66.4052 31.8823C66.4049 31.882 66.4053 31.8824 66.411 31.8878C66.4151 31.8917 66.4245 31.9006 66.4348 31.91L66.8086 31.499L67.1824 31.0881C67.1825 31.0881 67.1819 31.0876 67.176 31.082C67.1716 31.0778 67.1621 31.0687 67.1515 31.0591L66.7783 31.4707ZM66.8086 31.499L66.4346 31.9099C66.7023 32.1535 66.9647 32.402 67.2205 32.6565L67.6123 32.2627L68.0042 31.8689C67.7354 31.6015 67.461 31.3417 67.1826 31.0882L66.8086 31.499ZM67.6123 32.2627L67.2311 32.6668C67.2407 32.6758 67.2439 32.6797 67.2723 32.7083L67.667 32.3174L68.0617 31.9265C68.0537 31.9183 68.0214 31.8849 67.9936 31.8586L67.6123 32.2627ZM67.667 32.3174L67.2704 32.7064L67.6708 33.1146L68.0674 32.7256L68.464 32.3366L68.0636 31.9284L67.667 32.3174ZM68.0674 32.7256L67.6663 33.11C69.7524 35.287 71.4175 37.8346 72.5759 40.6224L73.0889 40.4092L73.6019 40.196C72.3908 37.2813 70.6499 34.6177 68.4685 32.3412L68.0674 32.7256ZM73.0889 40.4092L72.5759 40.6224C72.8708 41.3322 73.1306 42.0557 73.3569 42.7889L73.8877 42.625L74.4185 42.4612C74.1823 41.6959 73.9108 40.9394 73.6019 40.196L73.0889 40.4092ZM73.8877 42.625L73.3569 42.7889C73.4519 43.0965 73.5404 43.4063 73.6233 43.7179L74.1602 43.5752L74.6971 43.4325C74.6107 43.1074 74.5181 42.7836 74.4185 42.4612L73.8877 42.625ZM74.1602 43.5752L73.6233 43.7179C74.1669 45.7633 74.4446 47.8745 74.4425 49.9995L74.9981 50L75.5536 50.0006C75.5558 47.778 75.2653 45.5705 74.6971 43.4325L74.1602 43.5752ZM74.9981 50L74.4426 49.9939L74.4357 50.6111L74.9912 50.6172L75.5467 50.6234L75.5536 50.0062L74.9981 50ZM74.9912 50.6172L74.4358 50.6042C74.4206 51.252 74.3776 51.8993 74.3107 52.5443L74.8633 52.6016L75.4159 52.6589C75.4856 51.9867 75.5306 51.3098 75.5466 50.6303L74.9912 50.6172ZM74.8633 52.6016L74.3107 52.5444C74.3051 52.5986 74.3 52.6487 74.2945 52.6991L74.8467 52.7598L75.3989 52.8204C75.405 52.7655 75.4106 52.7101 75.4159 52.6587L74.8633 52.6016ZM74.8467 52.7598L74.2945 52.6989C74.2822 52.8105 74.2692 52.9219 74.2554 53.0331L74.8067 53.1016L75.358 53.1701C75.3724 53.0536 75.3861 52.9372 75.3989 52.8206L74.8467 52.7598ZM74.8067 53.1016L74.2553 53.0333C74.249 53.0841 74.244 53.1267 74.2381 53.1718L74.7891 53.2432L75.34 53.3146C75.3464 53.2654 75.3526 53.2136 75.358 53.1698L74.8067 53.1016ZM74.7891 53.2432L74.2382 53.1716C74.2221 53.2952 74.2048 53.4193 74.1866 53.5439L74.7363 53.624L75.2861 53.7042C75.3049 53.5752 75.323 53.4454 75.34 53.3148L74.7891 53.2432ZM74.7363 53.624L74.1866 53.5442C74.1742 53.6292 74.161 53.7148 74.1474 53.802L74.6963 53.8877L75.2452 53.9734C75.259 53.8851 75.2729 53.7949 75.2861 53.7039L74.7363 53.624ZM74.6963 53.8877L74.1475 53.8017C74.1321 53.8999 74.1157 53.9986 74.0988 54.0987L74.6465 54.1914L75.1942 54.2842C75.2116 54.1819 75.2288 54.0783 75.2452 53.9737L74.6963 53.8877ZM74.6465 54.1914L74.0987 54.0989C74.0866 54.171 74.0737 54.2434 74.0605 54.3176L74.6074 54.4151L75.1544 54.5125C75.1677 54.4378 75.1812 54.3612 75.1943 54.2839L74.6465 54.1914ZM74.6074 54.4151L74.0606 54.3173C74.0421 54.4205 74.0261 54.5132 74.0081 54.6076L74.5537 54.7119L75.0994 54.8163C75.1191 54.7131 75.1374 54.6076 75.1543 54.5128L74.6074 54.4151ZM74.5537 54.7119L74.008 54.6078C73.8732 55.3146 73.7079 56.0107 73.5135 56.6948L74.0479 56.8467L74.5823 56.9986C74.7856 56.2831 74.9584 55.5551 75.0994 54.816L74.5537 54.7119ZM74.0479 56.8467L73.5135 56.6948C73.5 56.7424 73.4891 56.7778 73.4724 56.8351L74.0059 56.9903L74.5393 57.1454C74.5505 57.107 74.5685 57.0469 74.5822 56.9986L74.0479 56.8467ZM74.0059 56.9903L73.4724 56.8352C73.4364 56.9591 73.3986 57.0833 73.3598 57.2094L73.8906 57.3731L74.4215 57.5367C74.4611 57.4083 74.5009 57.2776 74.5393 57.1453L74.0059 56.9903ZM73.8906 57.3731L73.3597 57.2094C73.3543 57.2271 73.3496 57.244 73.3469 57.2532C73.3437 57.2646 73.3425 57.2687 73.3416 57.2715L73.8721 57.4365L74.4025 57.6016C74.4082 57.5834 74.4131 57.5663 74.4158 57.5564C74.4192 57.5445 74.4205 57.5401 74.4215 57.5367L73.8906 57.3731ZM73.8721 57.4365L73.3416 57.2715C73.2902 57.4368 73.2365 57.6019 73.1813 57.7669L73.708 57.9434L74.2348 58.1198C74.2922 57.9485 74.3483 57.7758 74.4025 57.6016L73.8721 57.4365ZM73.708 57.9434L73.1812 57.767C73.1632 57.8209 73.1698 57.8027 73.1564 57.8425L73.6826 58.0205L74.2089 58.1986C74.2144 58.1823 74.2195 58.1666 74.2236 58.1539C74.2281 58.1402 74.2314 58.1298 74.2348 58.1197L73.708 57.9434ZM73.6826 58.0205L73.1564 57.8424C73.1086 57.9836 73.0583 58.125 73.0065 58.2691L73.5293 58.4571L74.0521 58.645C74.1046 58.4991 74.1576 58.3499 74.2088 58.1987L73.6826 58.0205ZM73.5293 58.4571L73.0065 58.2693C72.9911 58.312 72.9761 58.3527 72.9587 58.4001L73.4805 58.5908L74.0023 58.7816C74.0175 58.7398 74.0354 58.6915 74.0522 58.6448L73.5293 58.4571ZM73.4805 58.5908L72.9588 58.3999C72.9284 58.483 72.9252 58.4962 72.9016 58.5593L73.4219 58.7539L73.9422 58.9485C73.9591 58.9035 73.9929 58.8072 74.0022 58.7818L73.4805 58.5908ZM73.4219 58.7539L72.9016 58.5593C72.9068 58.5454 72.9114 58.535 72.9139 58.5297C72.9161 58.5249 72.9177 58.5216 72.9163 58.5246C72.9159 58.5253 72.9145 58.5281 72.9133 58.5307C72.9118 58.5336 72.9098 58.5378 72.9075 58.5426C72.903 58.5522 72.8963 58.567 72.8891 58.5851L73.4063 58.7881L73.9234 58.9911C73.9185 59.0035 73.9143 59.0126 73.9125 59.0164C73.9111 59.0195 73.9097 59.0222 73.912 59.0175C73.9133 59.0149 73.9178 59.0059 73.9226 58.9954C73.9277 58.9844 73.9348 58.9683 73.9422 58.9486L73.4219 58.7539ZM73.4063 58.7881L72.8861 58.5929C72.7854 58.8613 72.6837 59.1251 72.5759 59.3845L73.0889 59.5977L73.6019 59.8108C73.7167 59.5345 73.8236 59.2573 73.9264 58.9833L73.4063 58.7881ZM73.0889 59.5977L72.5759 59.3845C71.3474 62.341 69.5471 65.0252 67.2805 67.2864L67.6729 67.6797L68.0652 68.073C70.4348 65.709 72.3172 62.9025 73.6019 59.8108L73.0889 59.5977ZM67.6729 67.6797L67.2719 67.2952C67.2639 67.3036 67.2571 67.311 67.2522 67.3164C67.2478 67.3212 67.2429 67.3267 67.2415 67.3284C67.2391 67.331 67.2389 67.3312 67.2394 67.3307C67.2401 67.33 67.2425 67.3274 67.2462 67.3237L67.6387 67.7168L68.0312 68.11C68.0495 68.0917 68.0645 68.0748 68.0703 68.0683C68.0745 68.0637 68.0751 68.0629 68.0764 68.0615C68.0772 68.0606 68.0761 68.0619 68.0738 68.0642L67.6729 67.6797ZM67.6387 67.7168L67.2462 67.3236C65.5463 69.0203 63.6087 70.4541 61.4974 71.5802L61.7588 72.0703L62.0202 72.5605C64.228 71.383 66.254 69.8839 68.0311 68.11L67.6387 67.7168ZM61.7588 72.0703L61.4974 71.5802C61.3944 71.6351 61.298 71.6828 61.1803 71.7434L61.4346 72.2373L61.6888 72.7313C61.7874 72.6806 61.9087 72.62 62.0202 72.5605L61.7588 72.0703ZM61.4346 72.2373L61.156 71.7567C61.102 71.788 61.0517 71.8144 61.0031 71.8364L61.2315 72.3428L61.4599 72.8492C61.5514 72.8079 61.6359 72.7627 61.7131 72.718L61.4346 72.2373ZM61.2315 72.3428L60.9818 71.8465C60.9753 71.8498 60.9698 71.8527 60.966 71.8547C60.9624 71.8566 60.9591 71.8584 60.9581 71.859C60.9564 71.8599 60.957 71.8596 60.9579 71.8591C60.959 71.8585 60.9618 71.857 60.9655 71.8551L61.2149 72.3516L61.4642 72.848C61.4707 72.8447 61.4763 72.8418 61.4802 72.8398C61.4838 72.8378 61.4872 72.836 61.4883 72.8354C61.49 72.8345 61.4895 72.8348 61.4886 72.8352C61.4875 72.8358 61.4849 72.8372 61.4812 72.8391L61.2315 72.3428ZM61.2149 72.3516L60.9655 71.8551C60.4308 72.1237 59.8852 72.3725 59.33 72.6018L59.542 73.1153L59.7541 73.6287C60.334 73.3892 60.9046 73.1291 61.4642 72.848L61.2149 72.3516ZM59.542 73.1153L59.33 72.6018C58.718 72.8545 58.0961 73.0807 57.4662 73.2825L57.6358 73.8115L57.8053 74.3406C58.4624 74.13 59.1129 73.8935 59.754 73.6287L59.542 73.1153ZM57.6358 73.8115L57.4662 73.2825C56.6466 73.5452 55.8146 73.764 54.9732 73.9385L55.086 74.4824L55.1987 75.0264C56.0784 74.8441 56.9484 74.6153 57.8053 74.3406L57.6358 73.8115ZM55.086 74.4824L54.9733 73.9384C54.6435 74.0068 54.3121 74.0681 53.9793 74.1227L54.0694 74.6709L54.1594 75.2191C54.5069 75.162 54.8534 75.098 55.1986 75.0264L55.086 74.4824ZM54.0694 74.6709L53.9792 74.1227C52.665 74.3388 51.3328 74.4491 49.9958 74.4474L49.9951 75.0029L49.9944 75.5585C51.3935 75.5602 52.7864 75.4448 54.1595 75.2191L54.0694 74.6709ZM49.9951 75.0029L49.996 74.4474C50.0125 74.4474 50.0254 74.4483 50.0326 74.4489C50.0363 74.4492 50.0391 74.4494 50.0404 74.4496C50.0417 74.4497 50.0424 74.4498 50.0414 74.4497C50.0409 74.4496 50.0382 74.4493 50.0354 74.449C50.0324 74.4487 50.0279 74.4483 50.0226 74.4478C50.0121 74.4469 49.9958 74.4458 49.9759 74.4455L49.9688 75.001L49.9616 75.5565C49.9462 75.5563 49.9342 75.5554 49.9281 75.5549C49.925 75.5546 49.9227 75.5544 49.9219 75.5543C49.9213 75.5542 49.9208 75.5542 49.9225 75.5544C49.9242 75.5546 49.9336 75.5556 49.9445 75.5564C49.956 75.5574 49.9734 75.5585 49.9943 75.5585L49.9951 75.0029ZM49.9688 75.001L49.9694 74.4455C43.7275 74.4382 38.036 72.0924 33.7198 68.2361L33.3496 68.6504L32.9795 69.0647C37.4912 73.0956 43.4432 75.549 49.9681 75.5565L49.9688 75.001ZM33.3496 68.6504L33.7198 68.2361C33.693 68.2122 33.6715 68.1932 33.6481 68.1721L33.2764 68.585L32.9046 68.9978C32.9299 69.0206 32.9575 69.045 32.9795 69.0647L33.3496 68.6504ZM33.2764 68.585L33.6481 68.1721C33.4133 67.9607 33.1826 67.7444 32.9558 67.5237L32.5684 67.9219L32.181 68.3201C32.4176 68.5503 32.6588 68.7764 32.9046 68.9978L33.2764 68.585ZM32.5684 67.9219L32.9558 67.5237C32.9291 67.4978 32.9049 67.4742 32.8804 67.4502L32.4912 67.8467L32.1021 68.2432C32.1289 68.2695 32.1561 68.2959 32.181 68.3201L32.5684 67.9219ZM32.4912 67.8467L32.8803 67.4502C30.5523 65.1658 28.6804 62.4198 27.4116 59.3604L26.8985 59.5733L26.3853 59.7861C27.7121 62.9853 29.6691 65.8558 32.1021 68.2432L32.4912 67.8467ZM26.8985 59.5733L27.4114 59.3599C27.4061 59.3471 27.4007 59.3347 27.3973 59.3268C27.3933 59.3176 27.3912 59.3126 27.3894 59.3084L26.876 59.5205L26.3626 59.7327C26.3681 59.7461 26.3735 59.7587 26.3771 59.7671C26.3813 59.7767 26.3836 59.7819 26.3855 59.7866L26.8985 59.5733ZM26.876 59.5205L27.3895 59.3085C27.3908 59.3116 27.3916 59.3139 27.392 59.3148C27.3923 59.3156 27.3925 59.316 27.392 59.3147C27.3917 59.314 27.3906 59.311 27.3895 59.3081C27.3883 59.3049 27.3865 59.3004 27.3844 59.2951L26.8692 59.5029L26.354 59.7108C26.353 59.7084 26.3524 59.7068 26.3523 59.7066C26.3522 59.7064 26.3523 59.7065 26.3524 59.7069C26.3526 59.7074 26.3527 59.7077 26.3531 59.7088C26.3537 59.7104 26.355 59.7137 26.3565 59.7175C26.358 59.7214 26.36 59.7266 26.3625 59.7325L26.876 59.5205ZM26.8692 59.5029L27.383 59.2917C26.2058 56.4284 25.5546 53.2923 25.5546 50.003H24.999H24.4435C24.4435 53.4401 25.1242 56.7196 26.3553 59.7142L26.8692 59.5029ZM24.999 50.003L25.5546 50.0023C25.5538 49.3624 25.5799 48.7243 25.6291 48.0888L25.0752 48.0459L24.5213 48.003C24.47 48.6654 24.4427 49.3327 24.4435 50.0036L24.999 50.003ZM25.0752 48.0459L25.6291 48.0888C25.6685 47.5802 25.7235 47.0743 25.7943 46.5717L25.2442 46.4942L24.694 46.4167C24.6199 46.9426 24.5625 47.4716 24.5213 48.003L25.0752 48.0459ZM25.2442 46.4942L25.7943 46.5717C25.8045 46.4994 25.8154 46.4268 25.8267 46.3511L25.2774 46.2686L24.728 46.186C24.7168 46.2607 24.7051 46.3384 24.694 46.4167L25.2442 46.4942ZM25.2774 46.2686L25.8267 46.3511C25.8836 45.9727 25.9498 45.5959 26.0244 45.2207L25.4795 45.1123L24.9346 45.004C24.8568 45.3955 24.7876 45.7895 24.728 46.186L25.2774 46.2686ZM25.4795 45.1123L26.0244 45.2207C26.0755 44.9636 26.1285 44.7102 26.1867 44.4597L25.6455 44.334L25.1044 44.2083C25.0426 44.4744 24.9871 44.7403 24.9346 45.004L25.4795 45.1123ZM25.6455 44.334L26.1867 44.4597C26.2283 44.2806 26.2719 44.102 26.3175 43.924L25.7793 43.7862L25.2412 43.6483C25.1935 43.8344 25.1479 44.021 25.1044 44.2083L25.6455 44.334ZM25.7793 43.7862L26.3175 43.924C26.4873 43.2613 26.6863 42.6064 26.9114 41.96L26.3867 41.7774L25.8621 41.5947C25.6273 42.269 25.4191 42.9538 25.2412 43.6483L25.7793 43.7862ZM26.3867 41.7774L26.9114 41.96C26.9901 41.7341 27.0706 41.5107 27.1548 41.2898L26.6358 41.0918L26.1167 40.8939C26.0277 41.1273 25.9433 41.3613 25.8621 41.5947L26.3867 41.7774ZM26.6358 41.0918L27.1548 41.2898C27.2715 40.9838 27.395 40.68 27.5244 40.3779L27.0137 40.1592L26.503 39.9405C26.3682 40.2552 26.2391 40.5729 26.1167 40.8939L26.6358 41.0918ZM27.0137 40.1592L27.5244 40.3779C27.5945 40.2141 27.6654 40.0522 27.7382 39.8919L27.2324 39.6621L26.7267 39.4323C26.6497 39.6018 26.5754 39.7715 26.503 39.9405L27.0137 40.1592ZM27.2324 39.6621L27.7382 39.8919C28.0047 39.3055 28.2938 38.7295 28.6061 38.1657L28.1201 37.8965L27.6342 37.6273C27.3073 38.2174 27.005 38.8197 26.7267 39.4323L27.2324 39.6621ZM28.1201 37.8965L28.6061 38.1657C28.7661 37.8769 28.9334 37.5908 29.1064 37.3064L28.6319 37.0176L28.1573 36.7288C27.9776 37.0241 27.8025 37.3234 27.6342 37.6273L28.1201 37.8965ZM28.6319 37.0176L29.1064 37.3064C29.271 37.036 29.4415 36.7684 29.6173 36.5034L29.1543 36.1963L28.6914 35.8892C28.5081 36.1655 28.3298 36.4453 28.1573 36.7288L28.6319 37.0176ZM29.1543 36.1963L29.6173 36.5034C29.9202 36.0467 30.2387 35.5996 30.573 35.1629L30.1319 34.8252L29.6907 34.4875C29.341 34.9444 29.008 35.412 28.6914 35.8892L29.1543 36.1963ZM30.1319 34.8252L30.573 35.1629C30.9858 34.6237 31.4201 34.0997 31.8782 33.5951L31.4668 33.2217L31.0555 32.8483C30.5751 33.3775 30.121 33.9255 29.6907 34.4875L30.1319 34.8252ZM31.4668 33.2217L31.8734 33.6003L32.2826 33.1608L31.876 32.7822L31.4694 32.4037L31.0602 32.8431L31.4668 33.2217ZM31.876 32.7822L32.2792 33.1645C34.5597 30.759 37.3071 28.8435 40.353 27.5359L40.1338 27.0254L39.9146 26.5149C36.7299 27.8822 33.8573 29.8849 31.4728 32.4L31.876 32.7822ZM40.1338 27.0254L40.353 27.5359C40.825 27.3332 41.305 27.1475 41.7909 26.9745L41.6045 26.4512L41.4182 25.9278C40.9136 26.1075 40.4114 26.3017 39.9147 26.5149L40.1338 27.0254ZM41.6045 26.4512L41.7909 26.9745C44.4229 26.0372 47.1993 25.5559 50.0003 25.5595L50.001 25.0039L50.0017 24.4484C47.0724 24.4446 44.1695 24.9479 41.4181 25.9278L41.6045 26.4512ZM54.7832 53.7237L54.6012 53.1988C53.9884 53.4112 53.3745 53.6476 52.765 53.9152L52.9883 54.4238L53.2116 54.9325C53.7903 54.6785 54.3762 54.4527 54.9652 54.2485L54.7832 53.7237ZM52.9883 54.4238L52.5955 54.8167L52.5964 54.8177L52.9893 54.4248L53.3821 54.032L53.3811 54.031L52.9883 54.4238ZM52.9893 54.4248L52.7659 53.9162C45.3661 57.1656 39.7456 61.9528 36.641 65.4734L37.0576 65.8408L37.4743 66.2083C40.4862 62.7928 45.979 58.11 53.2126 54.9335L52.9893 54.4248ZM37.0576 65.8408L36.7059 66.2708C37.7321 67.1103 38.8406 67.8566 40.0207 68.4954L40.2852 68.0069L40.5496 67.5183C39.432 66.9133 38.3819 66.2063 37.4094 65.4108L37.0576 65.8408ZM40.2852 68.0069L40.0207 68.4954C40.0088 68.489 39.9998 68.4834 39.9949 68.4804C39.9924 68.4789 39.9905 68.4776 39.9895 68.477C39.9886 68.4764 39.9879 68.476 39.9885 68.4764C39.9887 68.4765 39.9903 68.4775 39.9919 68.4786C39.9937 68.4797 39.9965 68.4815 39.9998 68.4836C40.0062 68.4876 40.0169 68.4942 40.0304 68.5016L40.2979 68.0147L40.5654 67.5278C40.5767 67.534 40.5853 67.5393 40.5896 67.542C40.5919 67.5434 40.5936 67.5445 40.5943 67.545C40.5949 67.5454 40.5954 67.5457 40.5946 67.5451C40.5941 67.5448 40.5924 67.5437 40.5904 67.5425C40.5884 67.5411 40.5854 67.5392 40.5818 67.537C40.5749 67.5327 40.5637 67.5259 40.5496 67.5183L40.2852 68.0069ZM40.2979 68.0147L40.034 68.5036C42.9996 70.1041 46.3934 71.0125 49.9981 71.0126L49.9981 70.4571L49.9981 69.9015C46.5822 69.9014 43.3693 69.041 40.5617 67.5258L40.2979 68.0147ZM49.9981 70.4571V71.0126H50.001V70.4571V69.9015H49.9981V70.4571ZM50.001 70.4571L50.0003 71.0126C52.5792 71.0158 55.1355 70.5435 57.5402 69.6192L57.3408 69.1006L57.1415 68.5821C54.8647 69.4572 52.444 69.9045 50.0017 69.9015L50.001 70.4571ZM57.3408 69.1006L57.5402 69.6192C57.6798 69.5655 57.8178 69.5087 57.9475 69.4557L57.7373 68.9414L57.5272 68.4272C57.393 68.482 57.2677 68.5336 57.1415 68.5821L57.3408 69.1006ZM57.7373 68.9414L58.2853 68.8498C58.1976 68.3256 58.1037 67.749 58.0067 67.1392L57.458 67.2266L56.9094 67.3139C57.0068 67.926 57.1011 68.5055 57.1894 69.0331L57.7373 68.9414ZM57.458 67.2266L58.0067 67.1392C57.7683 65.6421 57.4852 63.8522 57.1337 61.8968L56.5869 61.9951L56.0402 62.0934C56.3894 64.0361 56.6708 65.8151 56.9094 67.3139L57.458 67.2266ZM56.5869 61.9951L57.1337 61.8968C56.6633 59.2804 56.0735 56.3999 55.3199 53.5802L54.7832 53.7237L54.2465 53.8671C54.9893 56.6465 55.5729 59.4945 56.0402 62.0934L56.5869 61.9951ZM70.336 52.1924L70.3618 51.6375C67.4748 51.5033 63.3951 51.311 59.0939 52.0541L59.1885 52.6016L59.2831 53.149C63.4501 52.4291 67.4172 52.6129 70.3102 52.7473L70.336 52.1924ZM59.1885 52.6016L58.6517 52.7447C59.4369 55.6907 60.0402 58.6556 60.5138 61.2897L61.0606 61.1914L61.6073 61.0931C61.1307 58.442 60.5212 55.4446 59.7253 52.4585L59.1885 52.6016ZM61.0606 61.1914L60.5138 61.2897C60.8723 63.2842 61.1602 65.1078 61.3977 66.5991L61.9463 66.5117L62.4949 66.4244C62.2578 64.935 61.9682 63.1004 61.6073 61.0931L61.0606 61.1914ZM61.9463 66.5117L61.3977 66.5991C61.4001 66.6141 61.4025 66.629 61.4047 66.643C61.4071 66.6573 61.4092 66.6708 61.4114 66.6841L61.96 66.5967L62.5086 66.5093C62.497 66.4366 62.506 66.4939 62.4949 66.4244L61.9463 66.5117ZM61.96 66.5967L62.2852 67.0471C62.3303 67.0146 62.4203 66.9519 62.4828 66.9056L62.1524 66.459L61.8219 66.0124C61.7577 66.06 61.7176 66.0865 61.6348 66.1463L61.96 66.5967ZM62.1524 66.459L62.4828 66.9056C63.3086 66.2946 64.09 65.622 64.8202 64.8932L64.4278 64.5L64.0353 64.1068C63.3437 64.7971 62.6038 65.4339 61.8219 66.0124L62.1524 66.459ZM64.4278 64.5L64.8206 64.8928L64.8245 64.8889L64.4317 64.4961L64.0388 64.1033L64.0349 64.1072L64.4278 64.5ZM64.4317 64.4961L64.8231 64.8903C66.7861 62.9408 68.3431 60.6214 69.4046 58.0667L68.8916 57.8535L68.3786 57.6404C67.3734 60.0596 65.8989 62.256 64.0402 64.1019L64.4317 64.4961ZM68.8916 57.8535L69.4046 58.0667C70.1778 56.2058 70.6756 54.2469 70.8884 52.2513L70.336 52.1924L69.7835 52.1335C69.582 54.0237 69.1106 55.8787 68.3786 57.6404L68.8916 57.8535ZM52.1016 46.2686L51.8708 45.7633C51.5973 45.8881 51.3247 46.0101 51.0514 46.1268L51.2696 46.6377L51.4877 47.1486C51.7724 47.0271 52.054 46.9011 52.3324 46.7739L52.1016 46.2686ZM51.2696 46.6377L51.0514 46.1268C47.1508 47.7924 42.2644 48.5266 37.9137 48.8286L37.9522 49.3828L37.9906 49.937C42.3829 49.6321 47.4161 48.8872 51.4877 47.1486L51.2696 46.6377ZM37.9522 49.3828L37.9137 48.8286C34.7535 49.048 31.7952 49.0431 29.5661 48.974L29.5488 49.5293L29.5316 50.0846C31.7873 50.1545 34.7841 50.1596 37.9906 49.937L37.9522 49.3828ZM29.5488 49.5293L28.9934 49.5173C28.9899 49.678 28.9882 49.8392 28.9884 50.0008L29.544 50L30.0995 49.9993C30.0993 49.8467 30.1009 49.694 30.1043 49.5414L29.5488 49.5293ZM29.544 50H28.9884V50.003H29.544H30.0995V50H29.544ZM29.544 50.003H28.9884C28.9884 52.8484 29.5557 55.5628 30.5815 58.0388L31.0947 57.8262L31.608 57.6136C30.6369 55.2696 30.0995 52.6996 30.0995 50.003H29.544ZM31.0947 57.8262L30.5818 58.0395C31.314 59.8007 32.2765 61.4412 33.4342 62.9239L33.8721 62.5821L34.31 62.2402C33.2131 60.8354 32.3013 59.2813 31.6077 57.6129L31.0947 57.8262ZM33.8721 62.5821L34.2853 62.9534C37.7619 59.0843 43.6966 54.1474 51.3845 50.7714L51.1612 50.2627L50.9378 49.7541C43.0879 53.2012 37.0277 58.2391 33.4589 62.2107L33.8721 62.5821ZM51.1612 50.2627L51.3758 50.7751L52.201 50.4294L51.9863 49.917L51.7717 49.4046L50.9465 49.7503L51.1612 50.2627ZM51.9863 49.917L52.1927 50.4328C52.6671 50.243 53.146 50.0686 53.627 49.9062L53.4492 49.3799L53.2715 48.8536C52.7741 49.0215 52.2758 49.2029 51.78 49.4012L51.9863 49.917ZM53.4492 49.3799L53.972 49.1918C53.5902 48.1308 53.1245 47.0695 52.5982 46.0196L52.1016 46.2686L51.6049 46.5175C52.1148 47.5346 52.562 48.555 52.9265 49.568L53.4492 49.3799ZM65.8526 37.0781L65.4926 36.655C63.3522 38.476 59.913 41.2823 55.8449 43.6796L56.127 44.1582L56.409 44.6368C60.5601 42.1907 64.0567 39.3354 66.2125 37.5013L65.8526 37.0781ZM56.127 44.1582L55.6309 44.4084C56.2806 45.6965 56.8498 47.0005 57.3034 48.3046L57.8281 48.1221L58.3528 47.9396C57.8803 46.581 57.2906 45.2316 56.623 43.908L56.127 44.1582ZM57.8281 48.1221L57.3034 48.3046C57.3248 48.366 57.316 48.343 57.3421 48.4186L57.8672 48.2373L58.3923 48.056C58.392 48.055 58.3581 47.9548 58.3528 47.9396L57.8281 48.1221ZM57.8672 48.2373L57.9699 48.7833C62.7938 47.8757 67.3517 48.0363 70.2868 48.1828L70.3145 47.628L70.3422 47.0731C67.3933 46.9259 62.7249 46.7581 57.7645 47.6914L57.8672 48.2373ZM70.3145 47.628L70.8663 47.5639C70.8643 47.5468 70.8626 47.5292 70.8602 47.5041C70.8579 47.4811 70.855 47.4514 70.8512 47.4205L70.2998 47.4883L69.7484 47.5561C69.7503 47.5716 69.7521 47.5886 69.7544 47.6121C69.7565 47.6336 69.7592 47.6626 69.7626 47.692L70.3145 47.628ZM70.2998 47.4883L70.8512 47.4205C70.6201 45.5407 70.1344 43.6966 69.4046 41.9402L68.8916 42.1533L68.3786 42.3665C69.0696 44.0297 69.5295 45.776 69.7484 47.5561L70.2998 47.4883ZM68.8916 42.1533L69.4046 41.9402C68.6748 40.1838 67.7107 38.5388 66.5416 37.0487L66.1045 37.3916L65.6674 37.7345C66.7745 39.1456 67.6875 40.7034 68.3786 42.3665L68.8916 42.1533ZM66.1045 37.3916L66.5416 37.0487C66.4555 36.939 66.3684 36.8315 66.2828 36.7267L65.8526 37.0781L65.4223 37.4296C65.5064 37.5325 65.5881 37.6334 65.6674 37.7345L66.1045 37.3916ZM40.9834 31.6367L40.7385 31.1381C38.5056 32.2346 36.4827 33.721 34.7677 35.531L35.1709 35.9131L35.5742 36.2952C37.1981 34.5814 39.1137 33.1738 41.2283 32.1354L40.9834 31.6367ZM35.1709 35.9131L34.7371 35.5661L34.7332 35.5709L35.167 35.918L35.6008 36.265L35.6047 36.2602L35.1709 35.9131ZM35.167 35.918L34.7648 35.5348C32.327 38.0938 30.5982 41.2051 29.6997 44.5635L30.2363 44.7071L30.773 44.8506C31.6239 41.6704 33.2609 38.7242 35.5692 36.3012L35.167 35.918ZM30.2363 44.7071L29.6997 44.5635C29.6725 44.6649 29.647 44.7658 29.6224 44.8634L30.1612 44.999L30.6999 45.1347C30.7244 45.0373 30.7482 44.9434 30.773 44.8506L30.2363 44.7071ZM30.1612 44.999L30.1471 45.5544C32.2183 45.6067 34.867 45.5979 37.6762 45.4029L37.6377 44.8487L37.5992 44.2944C34.8337 44.4864 32.2213 44.4954 30.1752 44.4437L30.1612 44.999ZM37.6377 44.8487L37.6762 45.4029C41.8988 45.1097 46.3316 44.4078 49.7035 42.968L49.4854 42.4571L49.2672 41.9461C46.0664 43.3129 41.7805 44.0042 37.5992 44.2944L37.6377 44.8487ZM49.4854 42.4571L49.7036 42.968C49.8178 42.9192 49.9403 42.8635 50.0413 42.819L49.8174 42.3106L49.5935 41.8022C49.4731 41.8552 49.3754 41.9 49.2672 41.9461L49.4854 42.4571ZM49.8174 42.3106L50.2833 42.008C47.4153 37.5923 43.8598 33.6515 41.3953 31.2288L41.0059 31.625L40.6164 32.0212C43.0425 34.4061 46.5401 38.2847 49.3515 42.6132L49.8174 42.3106ZM41.0059 31.625L40.7616 31.1261C40.7536 31.13 40.7467 31.1335 40.7419 31.1361C40.7372 31.1385 40.7331 31.1408 40.7315 31.1416C40.7292 31.1428 40.7296 31.1426 40.7304 31.1422C40.7314 31.1417 40.7344 31.1401 40.7385 31.1381L40.9834 31.6367L41.2283 32.1354C41.2362 32.1315 41.243 32.128 41.2477 32.1255C41.2522 32.1231 41.2563 32.1209 41.2578 32.1202C41.2599 32.119 41.2595 32.1192 41.2586 32.1197C41.2575 32.1203 41.2544 32.1219 41.2501 32.124L41.0059 31.625ZM49.9951 29.5488L49.9958 28.9933C48.5712 28.9915 47.1539 29.1352 45.7655 29.4197L45.877 29.9639L45.9885 30.5081C47.3033 30.2387 48.6455 30.1027 49.9944 30.1044L49.9951 29.5488ZM45.877 29.9639L45.7655 29.4197C45.7285 29.4272 45.6794 29.438 45.6521 29.4437L45.7666 29.9873L45.8811 30.5309C45.9275 30.5212 45.9517 30.5157 45.9885 30.5081L45.877 29.9639ZM45.7666 29.9873L45.3642 30.3703C47.8195 32.9506 50.8637 36.5292 53.4026 40.5134L53.8711 40.2149L54.3396 39.9163C51.7508 35.8538 48.6567 32.2186 46.1691 29.6044L45.7666 29.9873ZM53.8711 40.2149L54.1536 40.6932C57.7454 38.5721 60.8426 36.0839 62.9481 34.3074L62.5899 33.8828L62.2316 33.4582C60.1424 35.2209 57.1007 37.6625 53.5886 39.7365L53.8711 40.2149ZM62.5899 33.8828L62.9321 33.4452C62.8632 33.3913 62.7944 33.3385 62.7265 33.2868L62.3897 33.7285L62.0528 34.1703C62.119 34.2207 62.1838 34.2705 62.2476 34.3204L62.5899 33.8828ZM62.3897 33.7285L62.7266 33.2868C62.5464 33.1494 62.3634 33.0135 62.1768 32.8805L61.8545 33.333L61.5322 33.7855C61.7069 33.91 61.88 34.0385 62.0527 34.1703L62.3897 33.7285ZM61.8545 33.333L62.1768 32.8805C61.9428 32.7139 61.7056 32.5525 61.4656 32.396L61.1621 32.8613L60.8587 33.3267C61.0866 33.4753 61.3112 33.6281 61.5322 33.7855L61.8545 33.333ZM61.1621 32.8613L61.4656 32.396C60.3783 31.687 59.2248 31.0774 58.0187 30.5793L57.8067 31.0928L57.5946 31.6063C58.7361 32.0777 59.8284 32.6549 60.8587 33.3267L61.1621 32.8613ZM57.8067 31.0928L58.0187 30.5793C55.4761 29.5295 52.7513 28.9899 50.0003 28.9933L50.001 29.5488L50.0017 30.1044C52.6065 30.1012 55.1868 30.6121 57.5946 31.6063L57.8067 31.0928ZM50.001 29.5488V28.9933H49.9951V29.5488V30.1044H50.001V29.5488Z" fill="black"/>
</svg>
