<svg width="100" height="100" viewBox="0 0 100 100" fill="none" xmlns="http://www.w3.org/2000/svg">
<path d="M50.002 27.5C50.01 27.5 50.0183 27.5009 50.0264 27.501C52.9641 27.5012 55.8733 28.0779 58.5889 29.1992C58.7115 29.2499 58.8335 29.3027 58.9551 29.3555C58.9702 29.3617 58.9859 29.3665 59.001 29.373C59.029 29.3853 59.057 29.3988 59.085 29.4111C59.0944 29.4153 59.1038 29.4196 59.1133 29.4238C59.2641 29.4907 59.4143 29.5588 59.5635 29.6289C59.5984 29.6453 59.6331 29.6621 59.668 29.6787C59.805 29.744 59.9416 29.8099 60.0771 29.8779C60.099 29.8889 60.1207 29.9001 60.1426 29.9111C60.2654 29.9732 60.3872 30.0372 60.5088 30.1016C60.5862 30.1425 60.6633 30.1838 60.7402 30.2256C60.812 30.2647 60.8837 30.3039 60.9551 30.3438C61.0408 30.3916 61.1259 30.4403 61.2109 30.4893C61.2799 30.5289 61.3485 30.569 61.417 30.6094C61.5049 30.6612 61.5925 30.7136 61.6797 30.7666C61.7424 30.8047 61.8049 30.8431 61.8672 30.8818C61.9588 30.9388 62.0499 30.9965 62.1406 31.0547C62.2036 31.0951 62.2665 31.1357 62.3291 31.1768C62.4104 31.2301 62.4917 31.2835 62.5723 31.3379C62.6295 31.3765 62.6863 31.4159 62.7432 31.4551C62.8443 31.5246 62.945 31.5948 63.0449 31.666C63.0907 31.6986 63.1361 31.7317 63.1816 31.7646C63.269 31.8279 63.356 31.8916 63.4424 31.9561C63.4904 31.9919 63.5382 32.0282 63.5859 32.0645C63.6871 32.1412 63.7878 32.2184 63.8877 32.2969C63.923 32.3246 63.958 32.3529 63.9932 32.3809C64.0957 32.4624 64.1977 32.5446 64.2988 32.6279C64.3372 32.6595 64.375 32.6918 64.4131 32.7236C64.7799 33.0302 65.1381 33.3476 65.4854 33.6777C65.6123 33.7983 65.7381 33.9203 65.8623 34.0439C65.8683 34.0497 65.874 34.0557 65.8799 34.0615C67.9796 36.1488 69.6461 38.6312 70.7822 41.3652C71.3406 42.7091 71.7654 44.1011 72.0527 45.5205C72.1856 46.177 72.2876 46.8395 72.3613 47.5059C72.3883 47.7499 72.4126 47.9943 72.4316 48.2393C72.4765 48.8177 72.4982 49.3985 72.498 49.9805C72.4981 49.9857 72.5 49.9909 72.5 49.9961C72.5 49.9984 72.499 50.0007 72.499 50.0029C72.499 50.0798 72.4969 50.1567 72.4961 50.2334L72.4932 50.5537C72.4586 52.0228 72.2786 53.4821 71.96 54.9111C71.9468 54.9701 71.9335 55.0291 71.9199 55.0879C71.8982 55.1818 71.8755 55.2755 71.8525 55.3691C71.834 55.4447 71.8162 55.5204 71.7969 55.5957C71.7803 55.6606 71.7633 55.7253 71.7461 55.79C71.7237 55.8742 71.701 55.9582 71.6777 56.042C71.6537 56.1284 71.6286 56.2146 71.6035 56.3008C71.5788 56.3857 71.553 56.4702 71.5273 56.5547C71.5036 56.6329 71.4797 56.7111 71.4551 56.7891C71.428 56.8745 71.4011 56.9599 71.373 57.0449C71.346 57.1271 71.3181 57.2091 71.29 57.291C71.262 57.373 71.2331 57.4546 71.2041 57.5361C71.1733 57.6229 71.1422 57.7095 71.1104 57.7959C71.1005 57.8226 71.091 57.8494 71.0811 57.876C71.0794 57.8803 71.0768 57.8844 71.0752 57.8887C70.9815 58.139 70.885 58.3885 70.7822 58.6357C69.6495 61.3617 67.9883 63.8355 65.8975 65.9189C65.8899 65.9267 65.8836 65.9357 65.876 65.9434C63.7897 68.0257 61.3134 69.6767 58.5889 70.8018C57.8588 71.1032 57.1143 71.3639 56.3594 71.5859C55.9236 71.7142 55.4844 71.8292 55.042 71.9307C54.9623 71.9489 54.8826 71.967 54.8027 71.9844C54.3314 72.0871 53.8569 72.174 53.3799 72.2461C53.3226 72.2547 53.2653 72.2633 53.208 72.2715C52.1474 72.4234 51.0752 72.5003 49.999 72.499V72.5L49.998 72.499L49.9971 72.5C49.9886 72.5 49.9801 72.4982 49.9717 72.498C44.7444 72.4917 39.9359 70.7029 36.1191 67.707C36.0849 67.6801 36.0507 67.6531 36.0166 67.626C30.969 63.6167 27.6817 57.4864 27.5068 50.5811L27.499 50C27.4969 48.3242 27.684 46.6672 28.0459 45.0566C28.0988 44.8213 28.1545 44.5868 28.2148 44.3535C28.2333 44.282 28.2533 44.2109 28.2725 44.1396C28.3345 43.9094 28.3995 43.6801 28.4688 43.4521C28.507 43.3263 28.5475 43.2013 28.5879 43.0762C28.6934 42.7499 28.8065 42.4264 28.9268 42.1055C29.0627 41.7426 29.2067 41.3827 29.3613 41.0273C29.4906 40.7302 29.6265 40.4359 29.7686 40.1445C29.8628 39.9513 29.9588 39.7589 30.0586 39.5684C30.097 39.4951 30.1366 39.4225 30.1758 39.3496C31.0336 37.7546 32.0865 36.2577 33.3213 34.8975L33.6885 34.502C35.7878 32.2873 38.3171 30.5242 41.1211 29.3203C41.7263 29.0605 42.3424 28.8299 42.9658 28.625C43.1407 28.5675 43.3161 28.5121 43.4922 28.459C43.6968 28.3972 43.9022 28.3381 44.1084 28.2822C44.2853 28.2343 44.4626 28.1881 44.6406 28.1445C44.8114 28.1028 44.9826 28.0631 45.1543 28.0254C46.7424 27.676 48.3676 27.4979 50.002 27.5ZM54.3057 53.3486C53.7651 53.5361 53.2258 53.7439 52.6914 53.9785C46.1058 56.8704 41.1059 61.1334 38.3535 64.2549C39.2528 64.9904 40.224 65.6445 41.2578 66.2041C41.261 66.2058 41.2644 66.2082 41.2676 66.21C43.8657 67.6126 46.8392 68.4091 49.999 68.4092H50.002C52.3895 68.4121 54.7541 67.9478 56.9639 67.0449C56.8847 66.5715 56.8005 66.051 56.7129 65.501C56.4982 64.1527 56.2441 62.5463 55.9287 60.792C55.5068 58.4452 54.9788 55.868 54.3057 53.3486ZM68.3027 51.9678C65.7016 51.8471 62.0809 51.6802 58.2705 52.3389C58.9818 55.008 59.5276 57.6903 59.9551 60.0684C60.2789 61.8696 60.5393 63.5159 60.7529 64.8574C60.7571 64.8836 60.7615 64.9096 60.7656 64.9355C61.5528 64.3672 62.296 63.7369 62.9863 63.0479L62.9902 63.0439C64.71 61.336 66.0739 59.3037 67.0039 57.0654C67.3424 56.2507 67.6207 55.4145 67.8379 54.5635C67.8644 54.4594 67.8893 54.3548 67.9141 54.25C68.055 53.6544 68.1654 53.0522 68.2461 52.4453C68.2671 52.2868 68.2858 52.1276 68.3027 51.9678ZM51.8926 46.6387C51.6443 46.7521 51.3947 46.8635 51.1436 46.9707C47.556 48.5026 43.0926 49.1693 39.1582 49.4424C36.2931 49.6413 33.613 49.6359 31.5947 49.5732C31.5916 49.7147 31.5906 49.8563 31.5908 49.998V50C31.5908 52.7867 32.2112 55.4285 33.3193 57.7959C33.9099 59.0549 34.6381 60.2362 35.4854 61.3213C38.6559 57.7929 44.0536 53.304 51.0459 50.2334H51.0469C51.7265 49.9351 52.4142 49.6726 53.1045 49.4395C52.7687 48.5061 52.3589 47.5689 51.8926 46.6387ZM64.2686 38.3672C62.3354 40.0119 59.2141 42.5588 55.5156 44.7383C56.1083 45.9135 56.6291 47.1075 57.0459 48.3057C57.0577 48.3397 57.0683 48.3741 57.0801 48.4082C61.4839 47.5794 65.6371 47.7293 68.2852 47.8613C68.0891 46.171 67.6594 44.5122 67.0039 42.9346C66.318 41.2839 65.3952 39.7462 64.2686 38.3672ZM41.9062 33.459C39.9416 34.4207 38.1621 35.7281 36.6543 37.3193L36.6514 37.3232C34.4523 39.6316 32.9125 42.4533 32.1465 45.4961C33.9993 45.543 36.3666 45.5354 38.875 45.3613C42.6565 45.0988 46.5795 44.4719 49.5371 43.209C49.6373 43.1662 49.7362 43.1201 49.8359 43.0762C47.2803 39.1416 44.1071 35.6225 41.9062 33.459ZM49.9971 31.5918C48.7153 31.5902 47.4402 31.7227 46.1924 31.9854C48.4167 34.3231 51.1782 37.5696 53.4854 41.1904C56.6821 39.3026 59.4443 37.0837 61.332 35.4912C61.2444 35.4227 61.1562 35.355 61.0674 35.2881C59.8266 34.353 58.4697 33.5761 57.0273 32.9805C54.7996 32.0606 52.4121 31.5888 50.002 31.5918H49.9971Z" fill="#051B34"/>
<path d="M50.002 27.5L50.0026 27H50.0026L50.002 27.5ZM50.0264 27.501L50.0199 28.001L50.0263 28.001L50.0264 27.501ZM58.5889 29.1992L58.7797 28.7371L58.7797 28.7371L58.5889 29.1992ZM58.9551 29.3555L58.756 29.8143L58.7658 29.8182L58.9551 29.3555ZM59.001 29.373L59.2012 28.9149L59.2012 28.9149L59.001 29.373ZM59.085 29.4111L58.8828 29.8685L58.8831 29.8686L59.085 29.4111ZM59.1133 29.4238L59.3161 28.9668L59.3158 28.9667L59.1133 29.4238ZM59.5635 29.6289L59.3507 30.0814L59.3509 30.0815L59.5635 29.6289ZM59.668 29.6787L59.8831 29.2273L59.8828 29.2272L59.668 29.6787ZM60.0771 29.8779L59.8529 30.3248L59.8532 30.325L60.0771 29.8779ZM60.1426 29.9111L60.3682 29.465L60.368 29.4648L60.1426 29.9111ZM60.5088 30.1016L60.275 30.5435L60.2752 30.5436L60.5088 30.1016ZM60.7402 30.2256L60.9792 29.7864L60.979 29.7863L60.7402 30.2256ZM60.9551 30.3438L60.7113 30.7803L60.7115 30.7804L60.9551 30.3438ZM61.2109 30.4893L61.4604 30.0559L61.4602 30.0558L61.2109 30.4893ZM61.417 30.6094L61.163 31.04L61.1631 31.0401L61.417 30.6094ZM61.6797 30.7666L61.9395 30.3394L61.9394 30.3393L61.6797 30.7666ZM61.8672 30.8818L61.6032 31.3064L61.6033 31.3065L61.8672 30.8818ZM62.1406 31.0547L62.4107 30.6339L62.4106 30.6339L62.1406 31.0547ZM62.3291 31.1768L62.0548 31.5948L62.0549 31.5949L62.3291 31.1768ZM62.5723 31.3379L62.8519 30.9234L62.8519 30.9234L62.5723 31.3379ZM62.7432 31.4551L62.4597 31.8669L62.4597 31.867L62.7432 31.4551ZM63.0449 31.666L63.3351 31.2588L63.3351 31.2588L63.0449 31.666ZM63.1816 31.7646L62.8884 32.1696L62.8884 32.1697L63.1816 31.7646ZM63.4424 31.9561L63.7414 31.5553L63.7414 31.5553L63.4424 31.9561ZM63.5859 32.0645L63.2837 32.4628L63.2837 32.4628L63.5859 32.0645ZM63.8877 32.2969L63.5788 32.69L63.5788 32.69L63.8877 32.2969ZM63.9932 32.3809L64.3044 31.9896L64.3044 31.9896L63.9932 32.3809ZM64.2988 32.6279L63.9807 33.0137L63.9808 33.0137L64.2988 32.6279ZM64.4131 32.7236L64.7337 32.34L64.7337 32.3399L64.4131 32.7236ZM65.4854 33.6777L65.1408 34.0401L65.141 34.0402L65.4854 33.6777ZM65.8623 34.0439L65.5095 34.3984L65.5166 34.4051L65.8623 34.0439ZM65.8799 34.0615L66.2324 33.7069L66.23 33.7045L65.8799 34.0615ZM70.7822 41.3652L71.244 41.1734L71.2439 41.1734L70.7822 41.3652ZM72.0527 45.5205L71.5627 45.6197V45.6197L72.0527 45.5205ZM72.3613 47.5059L72.8583 47.4509V47.4509L72.3613 47.5059ZM72.4316 48.2393L71.9331 48.2779V48.2779L72.4316 48.2393ZM72.498 49.9805L71.998 49.9804L71.9981 49.9842L72.498 49.9805ZM72.5 49.9961L73 49.9961V49.9961L72.5 49.9961ZM72.499 50.0029L71.999 50.0013V50.0029L72.499 50.0029ZM72.4961 50.2334L71.9961 50.2283L71.9961 50.2288L72.4961 50.2334ZM72.4932 50.5537L72.9931 50.5655L72.9931 50.5583L72.4932 50.5537ZM71.96 54.9111L71.4719 54.8023L71.4719 54.8024L71.96 54.9111ZM71.9199 55.0879L72.407 55.2007L72.4071 55.2006L71.9199 55.0879ZM71.8525 55.3691L71.3669 55.2501L71.3669 55.2502L71.8525 55.3691ZM71.7969 55.5957L72.2812 55.7198L72.2812 55.7197L71.7969 55.5957ZM71.7461 55.79L71.2629 55.6616L71.2629 55.6616L71.7461 55.79ZM71.6777 56.042L71.196 55.908L71.196 55.908L71.6777 56.042ZM71.6035 56.3008L72.0836 56.4406L72.0836 56.4406L71.6035 56.3008ZM71.5273 56.5547L71.049 56.4092L71.049 56.4092L71.5273 56.5547ZM71.4551 56.7891L71.9318 56.9399L71.9318 56.9397L71.4551 56.7891ZM71.373 57.0449L70.8982 56.8884L70.8981 56.8885L71.373 57.0449ZM71.29 57.291L71.7631 57.4531L71.7631 57.4529L71.29 57.291ZM71.2041 57.5361L70.733 57.3686L70.7329 57.3688L71.2041 57.5361ZM71.1104 57.7959L71.5793 57.9693L71.5794 57.969L71.1104 57.7959ZM71.0811 57.876L71.5494 58.0511V58.0511L71.0811 57.876ZM71.0752 57.8887L70.608 57.7104L70.6069 57.7135L71.0752 57.8887ZM70.7822 58.6357L71.244 58.8276V58.8276L70.7822 58.6357ZM65.8975 65.9189L65.5445 65.5647L65.5388 65.5706L65.8975 65.9189ZM65.876 65.9434L66.2292 66.2972V66.2972L65.876 65.9434ZM58.5889 70.8018L58.7797 71.2639L58.7797 71.2639L58.5889 70.8018ZM56.3594 71.5859L56.2183 71.1063L56.2182 71.1063L56.3594 71.5859ZM55.042 71.9307L55.1537 72.418L55.1538 72.418L55.042 71.9307ZM54.8027 71.9844L54.6964 71.4958L54.6963 71.4958L54.8027 71.9844ZM53.3799 72.2461L53.4545 72.7405L53.4546 72.7405L53.3799 72.2461ZM53.208 72.2715L53.1372 71.7765L53.1371 71.7765L53.208 72.2715ZM49.999 72.499L49.9996 71.999C49.8669 71.9989 49.7396 72.0515 49.6457 72.1453C49.5518 72.2391 49.499 72.3663 49.499 72.499H49.999ZM49.999 72.5L49.6455 72.8536C49.7885 72.9966 50.0035 73.0393 50.1904 72.9619C50.3772 72.8845 50.499 72.7022 50.499 72.5H49.999ZM49.998 72.499L50.3516 72.1455C50.1563 71.9502 49.8398 71.9502 49.6445 72.1455L49.998 72.499ZM49.9971 72.5L49.9964 73C50.1292 73.0002 50.2567 72.9475 50.3506 72.8536L49.9971 72.5ZM49.9717 72.498L49.9785 71.9981L49.9723 71.998L49.9717 72.498ZM36.1191 67.707L36.4279 67.3137L36.4278 67.3137L36.1191 67.707ZM36.0166 67.626L35.7056 68.0175L35.7057 68.0175L36.0166 67.626ZM27.5068 50.5811L27.0068 50.5878L27.007 50.5937L27.5068 50.5811ZM27.499 50L26.999 50.0006L26.9991 50.0067L27.499 50ZM28.0459 45.0566L27.5581 44.947H27.5581L28.0459 45.0566ZM28.2148 44.3535L28.6989 44.4788H28.6989L28.2148 44.3535ZM28.2725 44.1396L27.7897 44.0096L27.7897 44.0096L28.2725 44.1396ZM28.4688 43.4521L28.9471 43.5975V43.5975L28.4688 43.4521ZM28.5879 43.0762L28.1121 42.9224L28.1121 42.9224L28.5879 43.0762ZM28.9268 42.1055L29.395 42.2809H29.395L28.9268 42.1055ZM29.3613 41.0273L28.9028 40.8279V40.8279L29.3613 41.0273ZM29.7686 40.1445L30.218 40.3637V40.3637L29.7686 40.1445ZM30.0586 39.5684L29.6157 39.3364V39.3364L30.0586 39.5684ZM30.1758 39.3496L30.6161 39.5864V39.5864L30.1758 39.3496ZM33.3213 34.8975L32.9548 34.5572L32.9511 34.5614L33.3213 34.8975ZM33.6885 34.502L33.3256 34.1579L33.322 34.1618L33.6885 34.502ZM41.1211 29.3203L40.9238 28.8609L40.9238 28.8609L41.1211 29.3203ZM42.9658 28.625L43.122 29.1L43.122 29.1L42.9658 28.625ZM43.4922 28.459L43.3478 27.9803L43.3477 27.9803L43.4922 28.459ZM44.1084 28.2822L44.2391 28.7649L44.2391 28.7648L44.1084 28.2822ZM44.6406 28.1445L44.5218 27.6588L44.5218 27.6589L44.6406 28.1445ZM45.1543 28.0254L45.2616 28.5137L45.2617 28.5137L45.1543 28.0254ZM54.3057 53.3486L54.7887 53.2196C54.7529 53.0854 54.6628 52.9721 54.5401 52.907C54.4174 52.8419 54.2731 52.8307 54.1419 52.8762L54.3057 53.3486ZM52.6914 53.9785L52.4904 53.5207L52.4904 53.5207L52.6914 53.9785ZM38.3535 64.2549L37.9785 63.9242C37.8887 64.0261 37.8441 64.1601 37.8552 64.2955C37.8662 64.4309 37.9318 64.5559 38.037 64.6419L38.3535 64.2549ZM41.2578 66.2041L41.0198 66.6438L41.0198 66.6438L41.2578 66.2041ZM41.2676 66.21L41.0273 66.6484L41.0301 66.6499L41.2676 66.21ZM49.999 68.4092L49.999 68.9092H49.999V68.4092ZM50.002 68.4092L50.0026 67.9092H50.002V68.4092ZM56.9639 67.0449L57.153 67.5078C57.3693 67.4194 57.4956 67.193 57.457 66.9625L56.9639 67.0449ZM56.7129 65.501L57.2067 65.4224V65.4224L56.7129 65.501ZM55.9287 60.792L56.4208 60.7035V60.7035L55.9287 60.792ZM68.3027 51.9678L68.7999 52.0206C68.8145 51.8836 68.7719 51.7466 68.6821 51.6421C68.5924 51.5376 68.4635 51.4747 68.3259 51.4683L68.3027 51.9678ZM58.2705 52.3389L58.1853 51.8462C58.047 51.8701 57.9251 51.951 57.8494 52.0692C57.7738 52.1874 57.7512 52.332 57.7874 52.4676L58.2705 52.3389ZM59.9551 60.0684L60.4472 59.9799V59.9799L59.9551 60.0684ZM60.7529 64.8574L60.2591 64.936V64.936L60.7529 64.8574ZM60.7656 64.9355L60.2719 65.0142C60.2992 65.1857 60.4135 65.3307 60.5738 65.3973C60.7341 65.4639 60.9176 65.4426 61.0583 65.3409L60.7656 64.9355ZM62.9863 63.0479L63.3395 63.4017L63.3399 63.4014L62.9863 63.0479ZM62.9902 63.0439L62.6379 62.6892L62.6367 62.6904L62.9902 63.0439ZM67.0039 57.0654L67.4656 57.2573L67.4656 57.2573L67.0039 57.0654ZM67.8379 54.5635L68.3224 54.6871L68.3224 54.6871L67.8379 54.5635ZM67.9141 54.25L67.4275 54.1349L67.4275 54.135L67.9141 54.25ZM68.2461 52.4453L68.7417 52.5113L68.7418 52.5111L68.2461 52.4453ZM51.8926 46.6387L52.3396 46.4146C52.219 46.174 51.9296 46.0721 51.6848 46.1839L51.8926 46.6387ZM51.1436 46.9707L51.3399 47.4305L51.3399 47.4305L51.1436 46.9707ZM39.1582 49.4424L39.1928 49.9412H39.1928L39.1582 49.4424ZM31.5947 49.5732L31.6102 49.0735C31.4769 49.0693 31.3474 49.1187 31.2506 49.2105C31.1538 49.3023 31.0977 49.429 31.0948 49.5624L31.5947 49.5732ZM31.5908 49.998H32.0908L32.0908 49.9974L31.5908 49.998ZM33.3193 57.7959L32.8665 58.0079L32.8667 58.0082L33.3193 57.7959ZM35.4854 61.3213L35.0913 61.629C35.1823 61.7456 35.3203 61.8159 35.4681 61.821C35.6159 61.8261 35.7584 61.7655 35.8573 61.6555L35.4854 61.3213ZM51.0459 50.2334V49.7334C50.9767 49.7334 50.9082 49.7478 50.8449 49.7756L51.0459 50.2334ZM51.0469 50.2334V50.7334C51.1161 50.7334 51.1845 50.719 51.2479 50.6912L51.0469 50.2334ZM53.1045 49.4395L53.2645 49.9132C53.3917 49.8702 53.4963 49.7778 53.5547 49.6569C53.6132 49.5359 53.6204 49.3966 53.575 49.2702L53.1045 49.4395ZM64.2686 38.3672L64.6558 38.0508C64.5708 37.9468 64.4475 37.8814 64.3137 37.8692C64.1799 37.8571 64.0469 37.8993 63.9446 37.9864L64.2686 38.3672ZM55.5156 44.7383L55.2618 44.3075C55.0348 44.4413 54.9506 44.7282 55.0692 44.9634L55.5156 44.7383ZM57.0459 48.3057L57.5181 48.1414L57.5181 48.1414L57.0459 48.3057ZM57.0801 48.4082L56.6075 48.5714C56.6884 48.8058 56.9289 48.9454 57.1726 48.8996L57.0801 48.4082ZM68.2852 47.8613L68.2603 48.3607C68.4071 48.368 68.5496 48.3104 68.6501 48.2031C68.7506 48.0958 68.7988 47.9497 68.7818 47.8037L68.2852 47.8613ZM67.0039 42.9346L67.4656 42.7427L67.4656 42.7427L67.0039 42.9346ZM41.9062 33.459L42.2568 33.1024C42.1055 32.9537 41.8769 32.9167 41.6864 33.0099L41.9062 33.459ZM36.6543 37.3193L36.2914 36.9754C36.2782 36.9893 36.2658 37.004 36.2543 37.0193L36.6543 37.3193ZM36.6514 37.3232L37.0134 37.6681C37.0269 37.6539 37.0396 37.6389 37.0514 37.6232L36.6514 37.3232ZM32.1465 45.4961L31.6616 45.374C31.6245 45.5213 31.6564 45.6775 31.7483 45.7985C31.8401 45.9194 31.982 45.9921 32.1338 45.9959L32.1465 45.4961ZM38.875 45.3613L38.9096 45.8601H38.9096L38.875 45.3613ZM49.5371 43.209L49.7335 43.6688L49.7335 43.6688L49.5371 43.209ZM49.8359 43.0762L50.0375 43.5338C50.1717 43.4746 50.2732 43.3596 50.3151 43.2191C50.357 43.0786 50.3351 42.9268 50.2552 42.8038L49.8359 43.0762ZM49.9971 31.5918L49.9964 32.0918H49.9971V31.5918ZM46.1924 31.9854L46.0894 31.4961C45.912 31.5334 45.7687 31.6638 45.7149 31.8369C45.6611 32.01 45.7052 32.1987 45.8302 32.33L46.1924 31.9854ZM53.4854 41.1904L53.0637 41.4591C53.2085 41.6864 53.5075 41.758 53.7396 41.621L53.4854 41.1904ZM61.332 35.4912L61.6544 35.8734C61.7695 35.7763 61.8347 35.6325 61.8319 35.482C61.8292 35.3314 61.7587 35.1902 61.6401 35.0974L61.332 35.4912ZM61.0674 35.2881L60.7665 35.6874L60.7665 35.6874L61.0674 35.2881ZM57.0273 32.9805L57.2182 32.5183L57.2182 32.5183L57.0273 32.9805ZM50.002 31.5918V32.0918L50.0026 32.0918L50.002 31.5918ZM50.002 27.5L50.0013 28C49.9947 28 49.9897 27.9998 49.9875 27.9997C49.9854 27.9996 49.9841 27.9996 49.9861 27.9997C49.987 27.9997 49.9919 28 49.9969 28.0002C50.0022 28.0005 50.0103 28.0008 50.0199 28.0009L50.0264 27.501L50.0328 27.001C50.0384 27.0011 50.0424 27.0013 50.0437 27.0013C50.0446 27.0014 50.0454 27.0014 50.0422 27.0012C50.0401 27.0011 50.0347 27.0008 50.0286 27.0006C50.0223 27.0003 50.0132 27 50.0026 27L50.002 27.5ZM50.0264 27.501L50.0263 28.001C52.8987 28.0012 55.743 28.5651 58.398 29.6614L58.5889 29.1992L58.7797 28.7371C56.0036 27.5908 53.0296 27.0012 50.0264 27.001L50.0264 27.501ZM58.5889 29.1992L58.398 29.6614C58.5159 29.7101 58.634 29.7612 58.7561 29.8142L58.9551 29.3555L59.1541 28.8968C59.033 28.8442 58.907 28.7896 58.7797 28.7371L58.5889 29.1992ZM58.9551 29.3555L58.7658 29.8182C58.7764 29.8226 58.7857 29.8261 58.7925 29.8286C58.7985 29.8309 58.8053 29.8333 58.8073 29.834C58.8105 29.8352 58.8108 29.8353 58.81 29.835C58.809 29.8347 58.8057 29.8333 58.8008 29.8312L59.001 29.373L59.2012 28.9149C59.1777 28.9046 59.1568 28.8971 59.1488 28.8942C59.1431 28.8921 59.1422 28.8918 59.1405 28.8912C59.1396 28.8908 59.1413 28.8914 59.1444 28.8927L58.9551 29.3555ZM59.001 29.373L58.8007 29.8312C58.8097 29.8351 58.8196 29.8396 58.8339 29.8462C58.8468 29.8522 58.8646 29.8604 58.8828 29.8685L59.085 29.4111L59.2871 28.9538C59.2773 28.9495 59.2672 28.9448 59.2521 28.9379C59.2384 28.9316 59.2203 28.9232 59.2012 28.9149L59.001 29.373ZM59.085 29.4111L58.8831 29.8686C58.9134 29.8819 58.8712 29.8634 58.9108 29.881L59.1133 29.4238L59.3158 28.9667C59.313 28.9654 59.31 28.9641 59.3048 28.9617C59.3003 28.9597 59.2937 28.9567 59.2868 28.9537L59.085 29.4111ZM59.1133 29.4238L58.9105 29.8809C59.0591 29.9468 59.2058 30.0132 59.3507 30.0814L59.5635 29.6289L59.7763 29.1764C59.6228 29.1043 59.4691 29.0347 59.3161 28.9668L59.1133 29.4238ZM59.5635 29.6289L59.3509 30.0815C59.3848 30.0974 59.4136 30.1114 59.4531 30.1302L59.668 29.6787L59.8828 29.2272C59.8526 29.2129 59.812 29.1932 59.776 29.1763L59.5635 29.6289ZM59.668 29.6787L59.4529 30.1301C59.5886 30.1948 59.7218 30.259 59.8529 30.3248L60.0771 29.8779L60.3014 29.431C60.1614 29.3608 60.0213 29.2932 59.8831 29.2273L59.668 29.6787ZM60.0771 29.8779L59.8532 30.325C59.8763 30.3366 59.8878 30.3426 59.9171 30.3574L60.1426 29.9111L60.368 29.4648C60.3537 29.4576 60.3217 29.4412 60.3011 29.4309L60.0771 29.8779ZM60.1426 29.9111L59.9169 30.3573C60.0355 30.4173 60.1539 30.4795 60.275 30.5435L60.5088 30.1016L60.7426 29.6596C60.6205 29.595 60.4953 29.5292 60.3682 29.465L60.1426 29.9111ZM60.5088 30.1016L60.2752 30.5436C60.3509 30.5837 60.4264 30.6241 60.5015 30.6649L60.7402 30.2256L60.979 29.7863C60.9003 29.7435 60.8214 29.7013 60.7424 29.6595L60.5088 30.1016ZM60.7402 30.2256L60.5013 30.6648C60.5724 30.7035 60.6423 30.7417 60.7113 30.7803L60.9551 30.3438L61.1988 29.9072C61.1252 29.8661 61.0517 29.8258 60.9792 29.7864L60.7402 30.2256ZM60.9551 30.3438L60.7115 30.7804C60.7941 30.8265 60.8767 30.8738 60.9617 30.9227L61.2109 30.4893L61.4602 30.0558C61.3751 30.0069 61.2875 29.9566 61.1986 29.9071L60.9551 30.3438ZM61.2109 30.4893L60.9615 30.9226C61.0287 30.9613 61.0959 31.0005 61.163 31.04L61.417 30.6094L61.671 30.1787C61.6012 30.1375 61.531 30.0966 61.4604 30.0559L61.2109 30.4893ZM61.417 30.6094L61.1631 31.0401C61.2491 31.0908 61.3348 31.1421 61.42 31.1939L61.6797 30.7666L61.9394 30.3393C61.8502 30.2851 61.7607 30.2316 61.6709 30.1786L61.417 30.6094ZM61.6797 30.7666L61.4198 31.1938C61.4814 31.2312 61.5425 31.2687 61.6032 31.3064L61.8672 30.8818L62.1312 30.4572C62.0673 30.4175 62.0033 30.3782 61.9395 30.3394L61.6797 30.7666ZM61.8672 30.8818L61.6033 31.3065C61.6924 31.3619 61.7814 31.4183 61.8706 31.4755L62.1406 31.0547L62.4106 30.6339C62.3183 30.5746 62.2251 30.5156 62.1311 30.4572L61.8672 30.8818ZM62.1406 31.0547L61.8705 31.4755C61.933 31.5156 61.9943 31.5551 62.0548 31.5948L62.3291 31.1768L62.6034 30.7587C62.5387 30.7163 62.4742 30.6747 62.4107 30.6339L62.1406 31.0547ZM62.3291 31.1768L62.0549 31.5949C62.1361 31.6481 62.215 31.7 62.2927 31.7524L62.5723 31.3379L62.8519 30.9234C62.7683 30.867 62.6847 30.812 62.6033 30.7586L62.3291 31.1768ZM62.5723 31.3379L62.2926 31.7524C62.3473 31.7893 62.4006 31.8263 62.4597 31.8669L62.7432 31.4551L63.0267 31.0432C62.9719 31.0055 62.9117 30.9638 62.8519 30.9234L62.5723 31.3379ZM62.7432 31.4551L62.4597 31.867C62.5593 31.9355 62.6576 32.004 62.7548 32.0732L63.0449 31.666L63.3351 31.2588C63.2323 31.1856 63.1292 31.1138 63.0266 31.0432L62.7432 31.4551ZM63.0449 31.666L62.7547 32.0732C62.7985 32.1044 62.8416 32.1357 62.8884 32.1696L63.1816 31.7646L63.4749 31.3597C63.4306 31.3276 63.3829 31.2929 63.3351 31.2588L63.0449 31.666ZM63.1816 31.7646L62.8884 32.1697C62.9743 32.2318 63.0593 32.2941 63.1434 32.3568L63.4424 31.9561L63.7414 31.5553C63.6526 31.4891 63.5636 31.4239 63.4748 31.3596L63.1816 31.7646ZM63.4424 31.9561L63.1434 32.3568C63.1894 32.3912 63.2352 32.426 63.2837 32.4628L63.5859 32.0645L63.8882 31.6661C63.8411 31.6304 63.7915 31.5927 63.7414 31.5553L63.4424 31.9561ZM63.5859 32.0645L63.2837 32.4628C63.3837 32.5386 63.482 32.614 63.5788 32.69L63.8877 32.2969L64.1966 31.9037C64.0937 31.8229 63.9905 31.7438 63.8881 31.6661L63.5859 32.0645ZM63.8877 32.2969L63.5788 32.69C63.613 32.7169 63.6423 32.7407 63.6819 32.7722L63.9932 32.3809L64.3044 31.9896C64.2736 31.9651 64.2331 31.9324 64.1966 31.9037L63.8877 32.2969ZM63.9932 32.3809L63.6819 32.7721C63.7829 32.8525 63.8826 32.9328 63.9807 33.0137L64.2988 32.6279L64.6169 32.2422C64.5129 32.1564 64.4084 32.0723 64.3044 31.9896L63.9932 32.3809ZM64.2988 32.6279L63.9808 33.0137C64.0184 33.0447 64.0482 33.0703 64.0925 33.1073L64.4131 32.7236L64.7337 32.3399C64.7017 32.3133 64.656 32.2743 64.6169 32.2421L64.2988 32.6279ZM64.4131 32.7236L64.0924 33.1073C64.4519 33.4077 64.8021 33.718 65.1408 34.0401L65.4854 33.6777L65.8299 33.3154C65.4742 32.9772 65.1079 32.6527 64.7337 32.34L64.4131 32.7236ZM65.4854 33.6777L65.141 34.0402C65.2655 34.1585 65.3884 34.2777 65.5096 34.3983L65.8623 34.0439L66.215 33.6896C66.0877 33.5628 65.9591 33.4382 65.8297 33.3152L65.4854 33.6777ZM65.8623 34.0439L65.5166 34.4051C65.5137 34.4024 65.512 34.4006 65.5148 34.4034C65.5155 34.4042 65.518 34.4068 65.5202 34.4089C65.5226 34.4114 65.5259 34.4147 65.5298 34.4185L65.8799 34.0615L66.23 33.7045C66.2309 33.7054 66.2313 33.7058 66.2308 33.7053C66.23 33.7046 66.2296 33.7041 66.2275 33.702C66.2244 33.6989 66.2169 33.6912 66.208 33.6827L65.8623 34.0439ZM65.8799 34.0615L65.5274 34.4161C67.5803 36.4569 69.2098 38.884 70.3205 41.5571L70.7822 41.3652L71.2439 41.1734C70.0825 38.3783 68.3789 35.8407 66.2324 33.7069L65.8799 34.0615ZM70.7822 41.3652L70.3205 41.5571C70.8664 42.871 71.2817 44.2319 71.5627 45.6197L72.0527 45.5205L72.5428 45.4213C72.2491 43.9703 71.8148 42.5473 71.244 41.1734L70.7822 41.3652ZM72.0527 45.5205L71.5627 45.6197C71.6925 46.2608 71.7922 46.9086 71.8644 47.5608L72.3613 47.5059L72.8583 47.4509C72.783 46.7705 72.6788 46.0931 72.5428 45.4213L72.0527 45.5205ZM72.3613 47.5059L71.8644 47.5608C71.891 47.8014 71.9147 48.04 71.9331 48.2779L72.4316 48.2393L72.9301 48.2006C72.9106 47.9485 72.8857 47.6984 72.8583 47.4509L72.3613 47.5059ZM72.4316 48.2393L71.9331 48.2779C71.9769 48.843 71.9982 49.4109 71.998 49.9804L72.498 49.9805L72.998 49.9806C72.9982 49.3861 72.976 48.7924 72.9301 48.2006L72.4316 48.2393ZM72.498 49.9805L71.9981 49.9842C71.9983 50.0149 72.0012 50.0397 72.0033 50.0547C72.0044 50.0624 72.0055 50.0687 72.0062 50.0727C72.0065 50.0747 72.0069 50.0764 72.0071 50.0775C72.0072 50.0785 72.0074 50.0795 72.0074 50.0796C72.0076 50.0805 72.0072 50.0783 72.0067 50.0756C72.0062 50.0727 72.0053 50.0674 72.0044 50.0607C72.0026 50.0476 72 50.0248 72 49.9961L72.5 49.9961L73 49.9961C73 49.9648 72.9972 49.9394 72.995 49.9237C72.9939 49.9157 72.9928 49.9091 72.992 49.9048C72.9913 49.9008 72.9907 49.8974 72.9906 49.897C72.9904 49.8957 72.9908 49.8977 72.9912 49.9C72.9916 49.9026 72.9925 49.9076 72.9934 49.914C72.9952 49.9264 72.9978 49.9487 72.998 49.9767L72.498 49.9805ZM72.5 49.9961L72 49.9961C72 49.9787 72.0009 49.9633 72.0021 49.9506C72.0033 49.9379 72.0048 49.9271 72.0061 49.919C72.0074 49.9109 72.0086 49.9045 72.0094 49.9008C72.01 49.8974 72.0107 49.8945 72.0105 49.8952C72.0105 49.8953 72.0104 49.8955 72.0104 49.8958C72.0103 49.8961 72.0102 49.8966 72.0101 49.8971C72.0099 49.8982 72.0095 49.9 72.0091 49.9021C72.0083 49.9063 72.0069 49.9131 72.0056 49.9216C72.0042 49.9302 72.0026 49.9413 72.0013 49.9545C72.0001 49.9677 71.9991 49.9834 71.999 50.0013L72.499 50.0029L72.999 50.0046C72.999 50.0219 72.998 50.0371 72.9968 50.0497C72.9956 50.0623 72.9941 50.0729 72.9928 50.0808C72.9915 50.0888 72.9903 50.0951 72.9896 50.0986C72.9889 50.1019 72.9883 50.1047 72.9885 50.1038C72.9885 50.1037 72.9887 50.1028 72.989 50.1017C72.9892 50.1005 72.9896 50.0987 72.99 50.0965C72.9909 50.0922 72.9922 50.0852 72.9936 50.0766C72.995 50.0679 72.9966 50.0566 72.9978 50.0433C72.999 50.03 73 50.0141 73 49.9961L72.5 49.9961ZM72.499 50.0029L71.999 50.0029C71.999 50.0791 71.997 50.1371 71.9961 50.2283L72.4961 50.2334L72.9961 50.2385C72.9967 50.1762 72.999 50.0806 72.999 50.003L72.499 50.0029ZM72.4961 50.2334L71.9961 50.2288L71.9932 50.5491L72.4932 50.5537L72.9931 50.5583L72.9961 50.238L72.4961 50.2334ZM72.4932 50.5537L71.9933 50.5419C71.9595 51.978 71.7836 53.4048 71.4719 54.8023L71.96 54.9111L72.448 55.02C72.7737 53.5594 72.9577 52.0676 72.993 50.5655L72.4932 50.5537ZM71.96 54.9111L71.4719 54.8024C71.459 54.8606 71.446 54.9181 71.4328 54.9752L71.9199 55.0879L72.4071 55.2006C72.4211 55.14 72.4347 55.0797 72.448 55.0199L71.96 54.9111ZM71.9199 55.0879L71.4328 54.9751C71.4118 55.0659 71.3897 55.1572 71.3669 55.2501L71.8525 55.3691L72.3382 55.4882C72.3613 55.3938 72.3846 55.2977 72.407 55.2007L71.9199 55.0879ZM71.8525 55.3691L71.3669 55.2502C71.347 55.3314 71.331 55.3996 71.3125 55.4717L71.7969 55.5957L72.2812 55.7197C72.3013 55.6412 72.321 55.5581 72.3382 55.4881L71.8525 55.3691ZM71.7969 55.5957L71.3125 55.4716C71.2964 55.5347 71.2798 55.598 71.2629 55.6616L71.7461 55.79L72.2293 55.9184C72.2468 55.8526 72.2642 55.7864 72.2812 55.7198L71.7969 55.5957ZM71.7461 55.79L71.2629 55.6616C71.2408 55.7446 71.2187 55.8266 71.196 55.908L71.6777 56.042L72.1594 56.176C72.1834 56.0898 72.2066 56.0039 72.2293 55.9184L71.7461 55.79ZM71.6777 56.042L71.196 55.908C71.1729 55.9911 71.1487 56.0744 71.1235 56.161L71.6035 56.3008L72.0836 56.4406C72.1086 56.3548 72.1345 56.2658 72.1594 56.176L71.6777 56.042ZM71.6035 56.3008L71.1235 56.1609C71.0997 56.2425 71.0749 56.3241 71.049 56.4092L71.5273 56.5547L72.0057 56.7002C72.0312 56.6163 72.0578 56.5289 72.0836 56.4406L71.6035 56.3008ZM71.5273 56.5547L71.049 56.4092C71.0252 56.4875 71.002 56.5633 70.9783 56.6384L71.4551 56.7891L71.9318 56.9397C71.9574 56.8589 71.982 56.7783 72.0057 56.7001L71.5273 56.5547ZM71.4551 56.7891L70.9784 56.6383C70.9511 56.7244 70.9251 56.8068 70.8982 56.8884L71.373 57.0449L71.8479 57.2014C71.8771 57.113 71.905 57.0247 71.9318 56.9399L71.4551 56.7891ZM71.373 57.0449L70.8981 56.8885C70.872 56.9678 70.8449 57.0474 70.817 57.1291L71.29 57.291L71.7631 57.4529C71.7912 57.3707 71.8199 57.2865 71.848 57.2013L71.373 57.0449ZM71.29 57.291L70.817 57.129C70.7899 57.208 70.7619 57.2874 70.733 57.3686L71.2041 57.5361L71.6752 57.7037C71.7043 57.6218 71.734 57.5379 71.7631 57.4531L71.29 57.291ZM71.2041 57.5361L70.7329 57.3688C70.7024 57.4547 70.6721 57.5392 70.6413 57.6228L71.1104 57.7959L71.5794 57.969C71.6123 57.8798 71.6442 57.791 71.6753 57.7035L71.2041 57.5361ZM71.1104 57.7959L70.6414 57.6225C70.6261 57.6638 70.6244 57.6695 70.6127 57.7008L71.0811 57.876L71.5494 58.0511C71.5576 58.0292 71.5749 57.9814 71.5793 57.9693L71.1104 57.7959ZM71.0811 57.876L70.6127 57.7008C70.6186 57.6852 70.624 57.6732 70.6272 57.6664C70.6289 57.6629 70.6302 57.6602 70.6309 57.6588C70.6316 57.6574 70.6321 57.6564 70.6318 57.657C70.6317 57.6571 70.6307 57.6591 70.6297 57.6611C70.6286 57.6634 70.6268 57.6669 70.6248 57.6712C70.6209 57.6796 70.6146 57.6932 70.6081 57.7104L71.0752 57.8887L71.5423 58.0669C71.5366 58.082 71.5313 58.0935 71.5283 58.0997C71.5268 58.103 71.5256 58.1054 71.525 58.1067C71.5245 58.1077 71.524 58.1086 71.5245 58.1076C71.5247 58.1072 71.5257 58.1052 71.5269 58.1028C71.5282 58.1002 71.53 58.0965 71.5322 58.0919C71.5363 58.0831 71.5427 58.0689 71.5494 58.0511L71.0811 57.876ZM71.0752 57.8887L70.6069 57.7135C70.5145 57.9605 70.4202 58.204 70.3205 58.4439L70.7822 58.6357L71.244 58.8276C71.3497 58.573 71.4486 58.3176 71.5435 58.0639L71.0752 57.8887ZM70.7822 58.6357L70.3205 58.4439C69.2132 61.1088 67.589 63.5276 65.5445 65.5648L65.8975 65.9189L66.2504 66.2731C68.3877 64.1435 70.0859 61.6146 71.244 58.8276L70.7822 58.6357ZM65.8975 65.9189L65.5388 65.5706C65.5276 65.5821 65.5188 65.5921 65.513 65.5988C65.5101 65.6022 65.5076 65.6051 65.5059 65.6072C65.5043 65.6091 65.5027 65.6111 65.5022 65.6116C65.5004 65.6138 65.5023 65.6115 65.5051 65.6083C65.5082 65.6047 65.5143 65.5979 65.5228 65.5895L65.876 65.9434L66.2292 66.2972C66.2415 66.285 66.2512 66.2742 66.2579 66.2665C66.2643 66.2592 66.2696 66.2528 66.2713 66.2508C66.2742 66.2473 66.2727 66.2491 66.271 66.2511C66.2688 66.2537 66.2635 66.2597 66.2561 66.2673L65.8975 65.9189ZM65.876 65.9434L65.5228 65.5895C63.4829 67.6254 61.0618 69.2396 58.398 70.3396L58.5889 70.8018L58.7797 71.2639C61.565 70.1138 64.0964 68.426 66.2292 66.2972L65.876 65.9434ZM58.5889 70.8018L58.398 70.3396C57.6848 70.6341 56.9569 70.889 56.2183 71.1063L56.3594 71.5859L56.5005 72.0656C57.2716 71.8388 58.0327 71.5723 58.7797 71.2639L58.5889 70.8018ZM56.3594 71.5859L56.2182 71.1063C55.792 71.2317 55.3626 71.3442 54.9302 71.4433L55.042 71.9307L55.1538 72.418C55.6061 72.3143 56.0551 72.1967 56.5005 72.0656L56.3594 71.5859ZM55.042 71.9307L54.9303 71.4433C54.8513 71.4614 54.7736 71.479 54.6964 71.4958L54.8027 71.9844L54.9091 72.4729C54.9916 72.455 55.0734 72.4364 55.1537 72.418L55.042 71.9307ZM54.8027 71.9844L54.6963 71.4958C54.2359 71.5961 53.7719 71.6812 53.3052 71.7517L53.3799 72.2461L53.4546 72.7405C53.9419 72.6668 54.427 72.578 54.9092 72.4729L54.8027 71.9844ZM53.3799 72.2461L53.3052 71.7517C53.2485 71.7603 53.1927 71.7686 53.1372 71.7765L53.208 72.2715L53.2788 72.7664C53.338 72.758 53.3967 72.7492 53.4545 72.7405L53.3799 72.2461ZM53.208 72.2715L53.1371 71.7765C52.0999 71.9251 51.0516 72.0002 49.9996 71.999L49.999 72.499L49.9984 72.999C51.0989 73.0003 52.1949 72.9217 53.2789 72.7664L53.208 72.2715ZM49.999 72.499H49.499V72.5H49.999H50.499V72.499H49.999ZM49.999 72.5L50.3526 72.1464L50.3516 72.1455L49.998 72.499L49.6445 72.8526L49.6455 72.8536L49.999 72.5ZM49.998 72.499L49.6445 72.1455L49.6435 72.1464L49.9971 72.5L50.3506 72.8536L50.3516 72.8526L49.998 72.499ZM49.9971 72.5L49.9978 72C50.0131 72 50.0252 72.0009 50.0318 72.0014C50.0352 72.0017 50.0378 72.0019 50.0391 72.0021C50.0402 72.0022 50.0409 72.0023 50.0399 72.0022C50.0394 72.0021 50.0369 72.0018 50.0343 72.0015C50.0314 72.0012 50.0272 72.0008 50.0222 72.0004C50.0124 71.9995 49.9971 71.9983 49.9785 71.9981L49.9717 72.498L49.9649 72.998C49.9505 72.9978 49.9394 72.9969 49.9338 72.9964C49.9291 72.996 49.925 72.9955 49.9289 72.996C49.9305 72.9962 49.9393 72.9972 49.9496 72.998C49.9605 72.9989 49.9768 73 49.9964 73L49.9971 72.5ZM49.9717 72.498L49.9723 71.998C44.8607 71.9918 40.1599 70.243 36.4279 67.3137L36.1191 67.707L35.8104 68.1003C39.712 71.1627 44.6281 72.9915 49.9711 72.998L49.9717 72.498ZM36.1191 67.707L36.4278 67.3137C36.3947 67.2877 36.3615 67.2614 36.3276 67.2344L36.0166 67.626L35.7057 68.0175C35.7399 68.0448 35.775 68.0725 35.8105 68.1004L36.1191 67.707ZM36.0166 67.626L36.3276 67.2345C31.391 63.3134 28.1777 57.3195 28.0067 50.5684L27.5068 50.5811L27.007 50.5937C27.1858 57.6532 30.547 63.92 35.7056 68.0175L36.0166 67.626ZM27.5068 50.5811L28.0068 50.5743L27.999 49.9933L27.499 50L26.9991 50.0067L27.0069 50.5878L27.5068 50.5811ZM27.499 50L27.999 49.9994C27.997 48.3612 28.1798 46.7412 28.5337 45.1663L28.0459 45.0566L27.5581 44.947C27.1881 46.5932 26.9969 48.2872 26.999 50.0006L27.499 50ZM28.0459 45.0566L28.5337 45.1663C28.5858 44.9348 28.6402 44.7056 28.6989 44.4788L28.2148 44.3535L27.7308 44.2282C27.6688 44.4679 27.6118 44.7079 27.5581 44.947L28.0459 45.0566ZM28.2148 44.3535L28.6989 44.4788C28.7167 44.4101 28.7342 44.3477 28.7552 44.2697L28.2725 44.1396L27.7897 44.0096C27.7723 44.0741 27.75 44.1539 27.7308 44.2282L28.2148 44.3535ZM28.2725 44.1396L28.7552 44.2697C28.8162 44.0436 28.8797 43.8195 28.9471 43.5975L28.4688 43.4521L27.9904 43.3067C27.9192 43.5407 27.8528 43.7752 27.7897 44.0096L28.2725 44.1396ZM28.4688 43.4521L28.9471 43.5975C28.9839 43.4767 29.023 43.3559 29.0637 43.23L28.5879 43.0762L28.1121 42.9224C28.072 43.0466 28.0301 43.176 27.9904 43.3067L28.4688 43.4521ZM28.5879 43.0762L29.0637 43.23C29.1667 42.9113 29.2773 42.595 29.395 42.2809L28.9268 42.1055L28.4585 41.93C28.3357 42.2578 28.22 42.5886 28.1121 42.9224L28.5879 43.0762ZM28.9268 42.1055L29.395 42.2809C29.5284 41.9249 29.6692 41.5732 29.8198 41.2268L29.3613 41.0273L28.9028 40.8279C28.7443 41.1923 28.5971 41.5602 28.4585 41.93L28.9268 42.1055ZM29.3613 41.0273L29.8198 41.2268C29.9461 40.9365 30.079 40.6488 30.218 40.3637L29.7686 40.1445L29.3191 39.9254C29.174 40.2231 29.035 40.5239 28.9028 40.8279L29.3613 41.0273ZM29.7686 40.1445L30.218 40.3637C30.3109 40.1731 30.4047 39.9853 30.5015 39.8003L30.0586 39.5684L29.6157 39.3364C29.5129 39.5326 29.4146 39.7295 29.3191 39.9254L29.7686 40.1445ZM30.0586 39.5684L30.5015 39.8003C30.5382 39.7303 30.575 39.6629 30.6161 39.5864L30.1758 39.3496L29.7354 39.1128C29.6982 39.182 29.6557 39.2599 29.6157 39.3364L30.0586 39.5684ZM30.1758 39.3496L30.6161 39.5864C31.455 38.0268 32.4844 36.5633 33.6915 35.2335L33.3213 34.8975L32.9511 34.5614C31.6887 35.9521 30.6123 37.4824 29.7354 39.1128L30.1758 39.3496ZM33.3213 34.8975L33.6877 35.2377L34.0549 34.8421L33.6885 34.502L33.322 34.1618L32.9549 34.5573L33.3213 34.8975ZM33.6885 34.502L34.0513 34.8459C36.1039 32.6807 38.5768 30.9568 41.3183 29.7798L41.1211 29.3203L40.9238 28.8609C38.0573 30.0915 35.4717 31.894 33.3256 34.158L33.6885 34.502ZM41.1211 29.3203L41.3183 29.7798C41.909 29.5262 42.5114 29.3007 43.122 29.1L42.9658 28.625L42.8097 28.15C42.1734 28.3592 41.5435 28.5948 40.9238 28.8609L41.1211 29.3203ZM42.9658 28.625L43.122 29.1C43.2931 29.0437 43.4646 28.9896 43.6366 28.9377L43.4922 28.459L43.3477 27.9803C43.1676 28.0347 42.9883 28.0913 42.8096 28.15L42.9658 28.625ZM43.4922 28.459L43.6366 28.9377C43.8373 28.8771 44.038 28.8193 44.2391 28.7649L44.1084 28.2822L43.9777 27.7996C43.7663 27.8568 43.5564 27.9174 43.3478 27.9803L43.4922 28.459ZM44.1084 28.2822L44.2391 28.7648C44.413 28.7177 44.5863 28.6726 44.7595 28.6302L44.6406 28.1445L44.5218 27.6589C44.339 27.7036 44.1576 27.7509 43.9777 27.7996L44.1084 28.2822ZM44.6406 28.1445L44.7594 28.6302C44.9262 28.5894 45.0936 28.5507 45.2616 28.5137L45.1543 28.0254L45.0469 27.5371C44.8717 27.5756 44.6966 27.6161 44.5218 27.6588L44.6406 28.1445ZM45.1543 28.0254L45.2617 28.5137C46.8147 28.1721 48.4037 27.998 50.0013 28L50.002 27.5L50.0026 27C48.3314 26.9979 46.67 27.18 45.0469 27.5371L45.1543 28.0254ZM54.3057 53.3486L54.1419 52.8762C53.5905 53.0674 53.0386 53.28 52.4904 53.5207L52.6914 53.9785L52.8924 54.4363C53.413 54.2078 53.9397 54.0047 54.4695 53.821L54.3057 53.3486ZM52.6914 53.9785L52.4904 53.5207C45.8299 56.4455 40.7725 60.7554 37.9785 63.9242L38.3535 64.2549L38.7286 64.5856C41.4392 61.5113 46.3817 57.2953 52.8924 54.4363L52.6914 53.9785ZM38.3535 64.2549L38.037 64.6419C38.9604 65.3972 39.9578 66.069 41.0198 66.6438L41.2578 66.2041L41.4958 65.7644C40.4902 65.2201 39.5453 64.5837 38.6701 63.8679L38.3535 64.2549ZM41.2578 66.2041L41.0198 66.6438C41.0113 66.6392 41.0047 66.6353 41.0014 66.6333C40.9983 66.6314 40.9959 66.6299 40.997 66.6306C40.9971 66.6306 41.0009 66.6331 41.0052 66.6357C41.0098 66.6385 41.0175 66.6431 41.0273 66.6484L41.2676 66.21L41.5079 65.7715C41.516 65.7759 41.5221 65.7796 41.5251 65.7814C41.5277 65.783 41.53 65.7845 41.5284 65.7835C41.5279 65.7831 41.5238 65.7806 41.5191 65.7777C41.5141 65.7747 41.506 65.7699 41.4958 65.7644L41.2578 66.2041ZM41.2676 66.21L41.0301 66.6499C43.6993 68.0909 46.7542 68.909 49.999 68.9092L49.999 68.4092L49.999 67.9092C46.9242 67.9091 44.0321 67.1342 41.5051 65.77L41.2676 66.21ZM49.999 68.4092V68.9092H50.002V68.4092V67.9092H49.999V68.4092ZM50.002 68.4092L50.0013 68.9092C52.4541 68.9122 54.8832 68.4352 57.153 67.5078L56.9639 67.0449L56.7748 66.5821C54.625 67.4604 52.3249 67.912 50.0026 67.9092L50.002 68.4092ZM56.9639 67.0449L57.457 66.9625C57.3782 66.4908 57.2941 65.9717 57.2067 65.4224L56.7129 65.501L56.2191 65.5796C56.3068 66.1304 56.3913 66.6522 56.4707 67.1274L56.9639 67.0449ZM56.7129 65.501L57.2067 65.4224C56.9921 64.0748 56.7372 62.4636 56.4208 60.7035L55.9287 60.792L55.4366 60.8805C55.751 62.6291 56.0043 64.2305 56.2191 65.5796L56.7129 65.501ZM55.9287 60.792L56.4208 60.7035C55.9975 58.3489 55.4667 55.757 54.7887 53.2196L54.3057 53.3486L53.8226 53.4777C54.491 55.979 55.0161 58.5416 55.4366 60.8805L55.9287 60.792ZM68.3027 51.9678L68.3259 51.4683C65.7272 51.3477 62.056 51.177 58.1853 51.8462L58.2705 52.3389L58.3557 52.8316C62.1058 52.1833 65.676 52.3464 68.2796 52.4672L68.3027 51.9678ZM58.2705 52.3389L57.7874 52.4676C58.4939 55.1187 59.0368 57.7865 59.463 60.1568L59.9551 60.0684L60.4472 59.9799C60.0183 57.5942 59.4698 54.8972 58.7536 52.2101L58.2705 52.3389ZM59.9551 60.0684L59.463 60.1568C59.7857 61.9523 60.0454 63.5938 60.2591 64.936L60.7529 64.8574L61.2467 64.7788C61.0332 63.438 60.772 61.7868 60.4472 59.9799L59.9551 60.0684ZM60.7529 64.8574L60.2591 64.936C60.2615 64.9505 60.2638 64.9647 60.2659 64.9776C60.2681 64.9908 60.27 65.0026 60.2719 65.0142L60.7656 64.9355L61.2594 64.8569C61.2571 64.8426 61.2548 64.8284 61.2527 64.8156C61.2505 64.8024 61.2486 64.7905 61.2467 64.7788L60.7529 64.8574ZM60.7656 64.9355L61.0583 65.3409C61.8666 64.7573 62.6301 64.1098 63.3395 63.4017L62.9863 63.0479L62.6331 62.694C61.9619 63.3639 61.2389 63.9771 60.4729 64.5302L60.7656 64.9355ZM62.9863 63.0479L63.3399 63.4014L63.3438 63.3975L62.9902 63.0439L62.6367 62.6904L62.6328 62.6943L62.9863 63.0479ZM62.9902 63.0439L63.3426 63.3987C65.1092 61.6441 66.5103 59.5565 67.4656 57.2573L67.0039 57.0654L66.5422 56.8736C65.6375 59.0509 64.3107 61.0278 62.6379 62.6892L62.9902 63.0439ZM67.0039 57.0654L67.4656 57.2573C67.8134 56.4202 68.0992 55.5612 68.3224 54.6871L67.8379 54.5635L67.3534 54.4398C67.1421 55.2677 66.8714 56.0811 66.5422 56.8736L67.0039 57.0654ZM67.8379 54.5635L68.3224 54.6871C68.3501 54.5782 68.3759 54.4697 68.4007 54.365L67.9141 54.25L67.4275 54.135C67.4027 54.2399 67.3787 54.3406 67.3534 54.4399L67.8379 54.5635ZM67.9141 54.25L68.4006 54.3651C68.5455 53.753 68.6588 53.1343 68.7417 52.5113L68.2461 52.4453L67.7505 52.3794C67.6719 52.97 67.5645 53.5559 67.4275 54.1349L67.9141 54.25ZM68.2461 52.4453L68.7418 52.5111C68.7634 52.3475 68.7826 52.1839 68.7999 52.0206L68.3027 51.9678L67.8055 51.915C67.7889 52.0713 67.7708 52.2261 67.7504 52.3796L68.2461 52.4453ZM51.8926 46.6387L51.6848 46.1839C51.4391 46.2961 51.1935 46.4057 50.9472 46.5109L51.1436 46.9707L51.3399 47.4305C51.5959 47.3212 51.8494 47.2081 52.1003 47.0935L51.8926 46.6387ZM51.1436 46.9707L50.9472 46.5109C47.4366 48.0099 43.0392 48.6718 39.1236 48.9436L39.1582 49.4424L39.1928 49.9412C43.1461 49.6667 47.6755 48.9953 51.3399 47.4305L51.1436 46.9707ZM39.1582 49.4424L39.1236 48.9436C36.2794 49.141 33.6168 49.1357 31.6102 49.0735L31.5947 49.5732L31.5792 50.073C33.6093 50.136 36.3067 50.1415 39.1928 49.9412L39.1582 49.4424ZM31.5947 49.5732L31.0948 49.5624C31.0917 49.7086 31.0906 49.8542 31.0908 49.9987L31.5908 49.998L32.0908 49.9974C32.0906 49.8584 32.0916 49.7208 32.0946 49.5841L31.5947 49.5732ZM31.5908 49.998H31.0908V50H31.5908H32.0908V49.998H31.5908ZM31.5908 50H31.0908C31.0908 52.8616 31.728 55.5757 32.8665 58.0079L33.3193 57.7959L33.7722 57.5839C32.6944 55.2814 32.0908 52.7118 32.0908 50H31.5908ZM33.3193 57.7959L32.8667 58.0082C33.4733 59.3014 34.2212 60.5147 35.0913 61.629L35.4854 61.3213L35.8794 61.0136C35.055 59.9577 34.3466 58.8083 33.772 57.5835L33.3193 57.7959ZM35.4854 61.3213L35.8573 61.6555C38.9863 58.1733 44.3275 53.7298 51.2469 50.6912L51.0459 50.2334L50.8449 49.7756C43.7796 52.8782 38.3254 57.4126 35.1134 60.9871L35.4854 61.3213ZM51.0459 50.2334V50.7334H51.0469V50.2334V49.7334H51.0459V50.2334ZM51.0469 50.2334L51.2479 50.6912C51.9126 50.3994 52.5866 50.1421 53.2645 49.9132L53.1045 49.4395L52.9445 48.9657C52.2419 49.203 51.5403 49.4707 50.8459 49.7756L51.0469 50.2334ZM53.1045 49.4395L53.575 49.2702C53.2315 48.3155 52.8135 47.3599 52.3396 46.4146L51.8926 46.6387L51.4456 46.8627C51.9043 47.7778 52.3059 48.6967 52.634 49.6087L53.1045 49.4395ZM64.2686 38.3672L63.9446 37.9864C62.0184 39.6251 58.923 42.15 55.2618 44.3075L55.5156 44.7383L55.7695 45.1691C59.5052 42.9676 62.6524 40.3987 64.5925 38.748L64.2686 38.3672ZM55.5156 44.7383L55.0692 44.9634C55.6538 46.1226 56.1653 47.2961 56.5737 48.4699L57.0459 48.3057L57.5181 48.1414C57.0929 46.9189 56.5629 45.7044 55.9621 44.5131L55.5156 44.7383ZM57.0459 48.3057L56.5737 48.4699C56.5778 48.4818 56.582 48.4946 56.5877 48.5122C56.593 48.5284 56.6 48.5497 56.6075 48.5714L57.0801 48.4082L57.5527 48.245C57.5484 48.2327 57.5442 48.2197 57.5383 48.2016C57.5328 48.185 57.5258 48.1635 57.5181 48.1414L57.0459 48.3057ZM57.0801 48.4082L57.1726 48.8996C61.5148 48.0824 65.6181 48.2289 68.2603 48.3607L68.2852 47.8613L68.3101 47.3619C65.6561 47.2296 61.453 47.0764 56.9876 47.9168L57.0801 48.4082ZM68.2852 47.8613L68.7818 47.8037C68.5805 46.0676 68.1391 44.3635 67.4656 42.7427L67.0039 42.9346L66.5422 43.1264C67.1797 44.6609 67.5978 46.2745 67.7885 47.9189L68.2852 47.8613ZM67.0039 42.9346L67.4656 42.7427C66.7609 41.0469 65.813 39.4673 64.6558 38.0508L64.2686 38.3672L63.8814 38.6835C64.9774 40.0251 65.875 41.5209 66.5422 43.1264L67.0039 42.9346ZM41.9062 33.459L41.6864 33.0099C39.6681 33.9979 37.8402 35.3408 36.2914 36.9754L36.6543 37.3193L37.0172 37.6632C38.484 36.1153 40.215 34.8436 42.1261 33.9081L41.9062 33.459ZM36.6543 37.3193L36.2543 37.0193L36.2514 37.0232L36.6514 37.3232L37.0514 37.6232L37.0543 37.6193L36.6543 37.3193ZM36.6514 37.3232L36.2893 36.9784C34.0302 39.3498 32.4485 42.2485 31.6616 45.374L32.1465 45.4961L32.6314 45.6182C33.3765 42.6582 34.8744 39.9134 37.0134 37.6681L36.6514 37.3232ZM32.1465 45.4961L32.1338 45.9959C33.9979 46.0432 36.3816 46.0356 38.9096 45.8601L38.875 45.3613L38.8404 44.8625C36.3517 45.0353 34.0007 45.0429 32.1591 44.9963L32.1465 45.4961ZM38.875 45.3613L38.9096 45.8601C42.7098 45.5963 46.6988 44.9646 49.7335 43.6688L49.5371 43.209L49.3408 42.7492C46.4601 43.9792 42.6033 44.6013 38.8404 44.8625L38.875 45.3613ZM49.5371 43.209L49.7335 43.6688C49.8338 43.626 49.954 43.5705 50.0375 43.5338L49.8359 43.0762L49.6344 42.6186C49.5184 42.6697 49.4408 42.7065 49.3407 42.7492L49.5371 43.209ZM49.8359 43.0762L50.2552 42.8038C47.6741 38.8301 44.475 35.283 42.2568 33.1024L41.9062 33.459L41.5557 33.8155C43.7393 35.9621 46.8864 39.4532 49.4166 43.3485L49.8359 43.0762ZM49.9971 31.5918L49.9977 31.0918C48.6811 31.0901 47.3712 31.2263 46.0894 31.4961L46.1924 31.9854L46.2954 32.4746C47.5092 32.2191 48.7496 32.0902 49.9964 32.0918L49.9971 31.5918ZM46.1924 31.9854L45.8302 32.33C48.0399 34.6524 50.779 37.8734 53.0637 41.4591L53.4854 41.1904L53.907 40.9217C51.5775 37.2657 48.7934 33.9937 46.5546 31.6407L46.1924 31.9854ZM53.4854 41.1904L53.7396 41.621C56.9723 39.712 59.7595 37.472 61.6544 35.8734L61.332 35.4912L61.0096 35.109C59.1292 36.6954 56.392 38.8933 53.2311 40.7599L53.4854 41.1904ZM61.332 35.4912L61.6401 35.0974C61.55 35.0269 61.4594 34.9574 61.3683 34.8888L61.0674 35.2881L60.7665 35.6874C60.853 35.7526 60.9389 35.8185 61.024 35.885L61.332 35.4912ZM61.0674 35.2881L61.3683 34.8888C60.0939 33.9284 58.7 33.1302 57.2182 32.5183L57.0273 32.9805L56.8365 33.4426C58.2393 34.0219 59.5593 34.7776 60.7665 35.6874L61.0674 35.2881ZM57.0273 32.9805L57.2182 32.5183C54.9297 31.5734 52.4772 31.0887 50.0013 31.0918L50.002 31.5918L50.0026 32.0918C52.3471 32.0889 54.6695 32.5478 56.8365 33.4426L57.0273 32.9805ZM50.002 31.5918V31.0918H49.9971V31.5918V32.0918H50.002V31.5918Z" fill="black"/>
</svg>
