<svg width="1000" height="1000" viewBox="0 0 1000 1000" fill="none" xmlns="http://www.w3.org/2000/svg">
<g clip-path="url(#clip0_20577_33705)">
<mask id="mask0_20577_33705" style="mask-type:luminance" maskUnits="userSpaceOnUse" x="0" y="0" width="1000" height="1000">
<path d="M1000 0H0V1000H1000V0Z" fill="white"/>
</mask>
<g mask="url(#mask0_20577_33705)">
<path d="M1000 0H0V1000H1000V0Z" fill="#051B34"/>
<path opacity="0.5" d="M307.463 487.364L1236.25 95.9995C1357.13 244.648 1352.01 786.886 1236.25 936L307.463 544.635C291.357 522.296 290.342 509.73 307.463 487.364Z" fill="url(#paint0_linear_20577_33705)" fill-opacity="0.6"/>
<g filter="url(#filter0_f_20577_33705)">
<path d="M-151.43 -185.723H3334.29V1277.13H-151.43C894.616 647.363 820.768 331.01 -151.43 -185.723Z" fill="#051B34"/>
</g>
<path d="M360 567H330C315.413 567 301.424 561.205 291.109 550.891C280.795 540.576 275 526.587 275 512C275 497.413 280.795 483.424 291.109 473.109C301.424 462.795 315.413 457 330 457H360V567Z" fill="#00FEF8"/>
<path d="M358 563C386.167 563 409 540.167 409 512C409 483.833 386.167 461 358 461C329.833 461 307 483.833 307 512C307 540.167 329.833 563 358 563Z" fill="#051B34" stroke="#00FFFF" stroke-width="8"/>
<path d="M387.275 529.88C385.353 533.024 382.947 535.846 380.148 538.242" stroke="#00FFFF" stroke-width="8" stroke-linecap="round"/>
<path d="M346.461 478.141C351.732 476.428 357.333 475.987 362.806 476.854C368.28 477.721 373.471 479.871 377.955 483.129C382.438 486.386 386.087 490.659 388.603 495.597C391.119 500.535 392.431 505.998 392.431 511.54" stroke="#00FFFF" stroke-width="8" stroke-linecap="round"/>
<g filter="url(#filter1_f_20577_33705)">
<path d="M363.818 546.054C382.603 546.054 397.831 530.826 397.831 512.041C397.831 493.256 382.603 478.028 363.818 478.028C345.033 478.028 329.805 493.256 329.805 512.041C329.805 530.826 345.033 546.054 363.818 546.054Z" fill="#00FFFF"/>
<path d="M363.818 543.625C381.261 543.625 395.402 529.484 395.402 512.041C395.402 494.598 381.261 480.458 363.818 480.458C346.375 480.458 332.234 494.598 332.234 512.041C332.234 529.484 346.375 543.625 363.818 543.625Z" stroke="#00FFFF" stroke-opacity="0.4" stroke-width="4.85902"/>
<path d="M389.684 527.841C388.024 530.555 385.948 532.991 383.531 535.06" stroke="#00FFFF" stroke-opacity="0.4" stroke-width="6.73713" stroke-linecap="round"/>
<path d="M354.445 483.173C358.995 481.694 363.831 481.314 368.556 482.062C373.282 482.811 377.763 484.667 381.633 487.479C385.504 490.291 388.654 493.979 390.826 498.242C392.998 502.505 394.131 507.222 394.131 512.006" stroke="#00FFFF" stroke-opacity="0.4" stroke-width="6.73713" stroke-linecap="round"/>
</g>
<path d="M212.229 468.005C194.169 468.005 185.139 475.69 185.139 491.06V491.636H232.786V525.835H185.139V568.871H139.797V492.021C139.797 472.552 145.753 457.566 157.665 447.063C169.577 436.56 186.484 431.309 208.386 431.309C216.2 431.309 223.564 432.077 230.481 433.614C237.397 435.023 243.353 437.009 248.349 439.57L235.284 473.769C231.698 471.847 227.855 470.439 223.757 469.542C219.786 468.517 215.943 468.005 212.229 468.005ZM517.826 570.792C505.915 570.792 495.22 568.487 485.741 563.876C476.391 559.265 469.026 552.797 463.647 544.471C458.395 536.146 455.77 526.731 455.77 516.229C455.77 505.726 458.395 496.376 463.647 488.178C469.026 479.853 476.391 473.384 485.741 468.773C495.22 464.162 505.915 461.857 517.826 461.857C530.635 461.857 541.586 464.611 550.68 470.118C559.774 475.626 566.05 483.247 569.508 492.981L535.886 509.504C531.788 500.282 525.704 495.671 517.634 495.671C512.511 495.671 508.22 497.464 504.762 501.051C501.432 504.637 499.767 509.696 499.767 516.229C499.767 522.889 501.432 528.012 504.762 531.599C508.22 535.185 512.511 536.978 517.634 536.978C525.704 536.978 531.788 532.367 535.886 523.145L569.508 539.668C566.05 549.402 559.774 557.023 550.68 562.531C541.586 568.039 530.635 570.792 517.826 570.792ZM723.254 463.778V568.871H681.947V558.881C678.105 562.851 673.622 565.861 668.498 567.91C663.375 569.832 657.931 570.792 652.168 570.792C638.847 570.792 628.152 566.758 620.082 558.688C612.013 550.491 607.979 538.195 607.979 521.8V463.778H651.399V514.307C651.399 521.48 652.552 526.603 654.857 529.677C657.163 532.751 660.557 534.288 665.04 534.288C669.267 534.288 672.789 532.623 675.607 529.293C678.425 525.835 679.834 520.455 679.834 513.155V463.778H723.254ZM812.447 570.792C803.481 570.792 794.644 569.832 785.934 567.91C777.224 565.989 770.179 563.492 764.8 560.418L776.712 531.791C781.579 534.737 787.343 537.042 794.003 538.707C800.663 540.372 807.132 541.205 813.408 541.205C818.403 541.205 821.861 540.821 823.783 540.052C825.832 539.156 826.857 537.875 826.857 536.21C826.857 534.545 825.576 533.392 823.014 532.751C820.581 532.111 816.546 531.471 810.91 530.83C802.329 529.805 795.028 528.525 789.008 526.988C782.988 525.323 777.672 522.184 773.061 517.573C768.578 512.962 766.337 506.366 766.337 497.784C766.337 490.996 768.386 484.912 772.485 479.532C776.584 474.153 782.668 469.862 790.737 466.66C798.934 463.458 808.733 461.857 820.132 461.857C828.073 461.857 835.823 462.625 843.379 464.162C851.065 465.571 857.597 467.685 862.976 470.503L851.065 499.129C841.842 494.006 831.724 491.444 820.709 491.444C811.23 491.444 806.491 493.109 806.491 496.44C806.491 498.105 807.772 499.321 810.334 500.09C812.895 500.73 816.93 501.371 822.438 502.011C831.019 503.036 838.256 504.381 844.148 506.046C850.168 507.711 855.419 510.849 859.902 515.46C864.513 520.071 866.819 526.667 866.819 535.249C866.819 541.781 864.77 547.737 860.671 553.117C856.572 558.496 850.424 562.787 842.227 565.989C834.029 569.191 824.103 570.792 812.447 570.792Z" fill="url(#paint1_linear_20577_33705)"/>
</g>
</g>
<defs>
<filter id="filter0_f_20577_33705" x="-365.716" y="-400.009" width="3914.29" height="1891.43" filterUnits="userSpaceOnUse" color-interpolation-filters="sRGB">
<feFlood flood-opacity="0" result="BackgroundImageFix"/>
<feBlend mode="normal" in="SourceGraphic" in2="BackgroundImageFix" result="shape"/>
<feGaussianBlur stdDeviation="107.143" result="effect1_foregroundBlur_20577_33705"/>
</filter>
<filter id="filter1_f_20577_33705" x="237.88" y="386.103" width="251.873" height="251.876" filterUnits="userSpaceOnUse" color-interpolation-filters="sRGB">
<feFlood flood-opacity="0" result="BackgroundImageFix"/>
<feBlend mode="normal" in="SourceGraphic" in2="BackgroundImageFix" result="shape"/>
<feGaussianBlur stdDeviation="45.9625" result="effect1_foregroundBlur_20577_33705"/>
</filter>
<linearGradient id="paint0_linear_20577_33705" x1="328.026" y1="516" x2="901.531" y2="516" gradientUnits="userSpaceOnUse">
<stop stop-color="#00FFFF" stop-opacity="0.6"/>
<stop offset="1" stop-color="#00FFFF" stop-opacity="0"/>
</linearGradient>
<linearGradient id="paint1_linear_20577_33705" x1="129.999" y1="499.502" x2="870.999" y2="499.683" gradientUnits="userSpaceOnUse">
<stop stop-color="#00FFFF"/>
<stop offset="1" stop-color="#00FF9F"/>
</linearGradient>
<clipPath id="clip0_20577_33705">
<rect width="1000" height="1000" fill="white"/>
</clipPath>
</defs>
</svg>
